<?xml version="1.0" encoding="UTF-8"?>
<svg id="Layer_1" data-name="Layer 1" xmlns="http://www.w3.org/2000/svg" viewBox="0 0 397.07 66.05">
  <defs>
    <style>
      .cls-1 {
        fill: #022e70;
      }

      .cls-2 {
        fill: #f0f0f0;
      }

      .cls-3 {
        fill: #d6d6d6;
      }

      .cls-4 {
        fill: #00001f;
      }

      .cls-5 {
        fill: #c2b59b;
      }
    </style>
  </defs>
  <g>
    <path class="cls-4" d="M109.84,34.03c.38,1.63.72,4.32.77,4.75.05-.34.34-2.59.86-4.7l4.13-16.37c.19-.77.58-1.2,1.39-1.2h3.65c.86,0,1.1.43.91,1.2l-7.63,30.24c-.19.82-.67,1.2-1.49,1.2h-4.08c-.72,0-1.15-.43-1.34-1.2l-4.22-16.71c-.29-1.06-.62-3.84-.67-4.37-.05.48-.43,3.41-.67,4.37l-4.22,16.71c-.19.82-.62,1.2-1.49,1.2h-4.08c-.72,0-1.15-.43-1.34-1.2l-7.63-30.24c-.19-.77.05-1.2.91-1.2h4.27c.82,0,1.2.43,1.39,1.2l4.03,16.37c.43,1.78.77,4.03.77,4.03,0,0,.24-1.58.86-4.03l4.13-16.37c.19-.77.58-1.2,1.44-1.2h3.89c.86,0,1.25.43,1.44,1.2l4.03,16.32Z"/>
    <path class="cls-4" d="M139.69,24.82c0-2.35-1.58-3.46-4.66-3.46s-4.71,1.1-4.71,3.46v.72c0,1.68,1.2,2.3,1.97,2.59l8.35,2.98c3.26,1.15,5.66,3.36,5.66,6.91v3.7c0,4.03-2.83,7.82-11.42,7.82s-11.47-3.79-11.47-7.82v-3.02c0-.86.34-1.25,1.15-1.25h4.03c.86,0,1.15.38,1.15,1.25v2.16c0,2.35,1.82,3.46,5.09,3.46s5.09-1.1,5.09-3.46v-1.54c0-1.97-1.92-2.74-4.08-3.55l-7.44-2.78c-2.3-.86-4.37-3.31-4.37-6.19v-2.83c0-4.03,2.5-7.83,10.9-7.83s11.09,3.79,11.09,7.83v1.97c0,.82-.34,1.2-1.2,1.2h-4.03c-.82,0-1.1-.38-1.1-1.2v-1.1Z"/>
    <path class="cls-4" d="M179.68,16.51c.82,0,1.2.29,1.2,1.15v3.02c0,.86-.38,1.2-1.2,1.2h-6.82v26.02c0,.86-.29,1.25-1.15,1.25h-4.18c-.86,0-1.2-.38-1.2-1.25v-26.02h-6.82c-.86,0-1.2-.34-1.2-1.2v-3.02c0-.86.34-1.15,1.2-1.15h20.16Z"/>
    <path class="cls-4" d="M185.48,49.16c-.86,0-1.15-.38-1.15-1.25v-30.15c0-.86.29-1.25,1.15-1.25h16.42c.82,0,1.2.29,1.2,1.15v3.02c0,.86-.38,1.2-1.2,1.2h-11.09v7.78h10.27c.86,0,1.25.29,1.25,1.15v2.88c0,.82-.38,1.15-1.25,1.15h-10.27v8.93h11.57c.86,0,1.2.29,1.2,1.15v3.02c0,.86-.34,1.2-1.2,1.2h-16.9Z"/>
    <path class="cls-4" d="M229.74,41.72c0,4.03-2.59,7.82-11.28,7.82s-11.28-3.79-11.28-7.82v-17.76c0-4.03,2.59-7.83,11.28-7.83s11.28,3.79,11.28,7.83v2.3c0,.86-.29,1.2-1.1,1.2h-3.98c-.86,0-1.2-.34-1.2-1.2v-1.15c0-2.4-1.68-3.6-4.9-3.6s-4.85,1.2-4.85,3.6v15.46c0,2.4,1.63,3.6,4.85,3.6s4.9-1.2,4.9-3.6v-1.82c0-.86.34-1.2,1.2-1.2h3.98c.82,0,1.1.34,1.1,1.2v2.98Z"/>
    <path class="cls-4" d="M240.54,29.71h10.37v-11.95c0-.86.29-1.25,1.15-1.25h4.18c.86,0,1.15.38,1.15,1.25v30.15c0,.86-.29,1.25-1.15,1.25h-4.18c-.86,0-1.15-.38-1.15-1.25v-12.82h-10.37v12.82c0,.86-.29,1.25-1.15,1.25h-4.18c-.86,0-1.15-.38-1.15-1.25v-30.15c0-.86.29-1.25,1.15-1.25h4.18c.86,0,1.15.38,1.15,1.25v11.95Z"/>
    <path class="cls-4" d="M285.28,47.96c0,.82-.29,1.2-1.15,1.2h-3.79c-.62,0-.86-.14-1.1-.58l-9.26-15.89c-1.3-2.16-1.87-3.74-1.92-3.89v19.15c0,.82-.29,1.2-1.15,1.2h-3.79c-.86,0-1.15-.38-1.15-1.2v-30.24c0-.82.29-1.2,1.15-1.2h3.79c.53,0,.82.14,1.01.48l9.65,16.56c.82,1.39,1.63,3.36,1.63,3.36v-19.2c0-.82.29-1.2,1.15-1.2h3.79c.86,0,1.15.38,1.15,1.2v30.24Z"/>
    <path class="cls-4" d="M296.27,47.91c0,.86-.29,1.25-1.15,1.25h-4.18c-.86,0-1.15-.38-1.15-1.25v-30.15c0-.86.29-1.25,1.15-1.25h4.18c.86,0,1.15.38,1.15,1.25v30.15Z"/>
    <path class="cls-4" d="M323.29,41.72c0,4.03-2.59,7.82-11.28,7.82s-11.28-3.79-11.28-7.82v-17.76c0-4.03,2.59-7.83,11.28-7.83s11.28,3.79,11.28,7.83v2.3c0,.86-.29,1.2-1.1,1.2h-3.98c-.86,0-1.2-.34-1.2-1.2v-1.15c0-2.4-1.68-3.6-4.9-3.6s-4.85,1.2-4.85,3.6v15.46c0,2.4,1.63,3.6,4.85,3.6s4.9-1.2,4.9-3.6v-1.82c0-.86.34-1.2,1.2-1.2h3.98c.82,0,1.1.34,1.1,1.2v2.98Z"/>
    <path class="cls-4" d="M339.85,16.51c.86,0,1.3.38,1.54,1.2l8.93,30.24c.24.77-.05,1.2-.86,1.2h-4.32c-.82,0-1.15-.43-1.39-1.2l-1.68-5.86h-8.93l-1.68,5.86c-.24.77-.58,1.2-1.44,1.2h-3.89c-.86,0-1.15-.43-.91-1.2l8.98-30.24c.24-.82.62-1.2,1.49-1.2h4.18ZM339.03,31.63c-.62-1.97-1.34-8.11-1.39-8.74-.1.62-.91,6.67-1.49,8.69l-1.63,5.38h6.1l-1.58-5.33Z"/>
    <path class="cls-4" d="M359.67,43.78h10.71c.82,0,1.2.29,1.2,1.15v3.02c0,.86-.38,1.2-1.2,1.2h-16.18c-.72,0-1.01-.43-1.01-1.25v-30.15c0-.86.29-1.25,1.15-1.25h4.18c.86,0,1.15.38,1.15,1.25v26.02Z"/>
    <path class="cls-4" d="M390.44,24.82c0-2.35-1.58-3.46-4.66-3.46s-4.71,1.1-4.71,3.46v.72c0,1.68,1.2,2.3,1.97,2.59l8.35,2.98c3.26,1.15,5.66,3.36,5.66,6.91v3.7c0,4.03-2.83,7.82-11.42,7.82s-11.47-3.79-11.47-7.82v-3.02c0-.86.34-1.25,1.15-1.25h4.03c.86,0,1.15.38,1.15,1.25v2.16c0,2.35,1.82,3.46,5.09,3.46s5.09-1.1,5.09-3.46v-1.54c0-1.97-1.92-2.74-4.08-3.55l-7.44-2.78c-2.3-.86-4.37-3.31-4.37-6.19v-2.83c0-4.03,2.5-7.83,10.9-7.83s11.09,3.79,11.09,7.83v1.97c0,.82-.34,1.2-1.2,1.2h-4.03c-.82,0-1.1-.38-1.1-1.2v-1.1Z"/>
  </g>
  <path class="cls-1" d="M8.27,33.03c0-13.14,10.23-23.86,23.15-24.72V0C13.92.86,0,15.32,0,33.03s13.92,32.16,31.41,33.03v-8.31c-12.92-.85-23.15-11.58-23.15-24.72Z"/>
  <path class="cls-4" d="M66.14,33.03C66.14,15.32,52.22.86,34.72,0v8.31c12.92.85,23.15,11.58,23.15,24.72s-10.22,23.86-23.15,24.72v8.31c17.49-.86,31.41-15.32,31.41-33.03Z"/>
  <path class="cls-2" d="M46.18,31.37h8.3c-.36-4.69-2.21-8.96-5.1-12.32l-5.87,5.87c1.42,1.83,2.37,4.04,2.67,6.45Z"/>
  <path class="cls-5" d="M46.18,34.68c-.75,5.98-5.48,10.71-11.46,11.46-.54.07-1.09.11-1.65.11s-1.11-.05-1.65-.11c-2.41-.3-4.62-1.25-6.45-2.67l-5.87,5.87c3.37,2.89,7.63,4.74,12.32,5.1.55.04,1.1.08,1.65.08s1.11-.04,1.65-.08c10.55-.81,18.95-9.21,19.76-19.76h-8.3Z"/>
  <path class="cls-3" d="M34.72,11.61c-.55-.04-1.1-.08-1.65-.08s-1.11.04-1.65.08c-11.1.85-19.84,10.1-19.84,21.41,0,5.34,1.96,10.22,5.18,13.98l5.87-5.87c-1.74-2.24-2.79-5.05-2.79-8.1,0-6.74,5.05-12.3,11.57-13.11.54-.07,1.09-.11,1.65-.11s1.11.05,1.65.11c2.41.3,4.62,1.25,6.45,2.67l5.87-5.87c-3.37-2.89-7.63-4.74-12.32-5.1Z"/>
</svg>
