<?xml version="1.0" encoding="UTF-8"?>
<svg xmlns="http://www.w3.org/2000/svg" viewBox="0 0 66.14 66.05">
  <path fill="#022e70" d="M8.27,33.03c0-13.14,10.23-23.86,23.15-24.72V0C13.92.86,0,15.32,0,33.03s13.92,32.16,31.41,33.03v-8.31c-12.92-.85-23.15-11.58-23.15-24.72Z"/>
  <path fill="#00001f" d="M66.14,33.03C66.14,15.32,52.22.86,34.72,0v8.31c12.92.85,23.15,11.58,23.15,24.72s-10.22,23.86-23.15,24.72v8.31c17.49-.86,31.41-15.32,31.41-33.03Z"/>
  <path fill="#f0f0f0" d="M46.18,31.37h8.3c-.36-4.69-2.21-8.96-5.1-12.32l-5.87,5.87c1.42,1.83,2.37,4.04,2.67,6.45Z"/>
  <path fill="#c2b59b" d="M46.18,34.68c-.75,5.98-5.48,10.71-11.46,11.46-.54.07-1.09.11-1.65.11s-1.11-.05-1.65-.11c-2.41-.3-4.62-1.25-6.45-2.67l-5.87,5.87c3.37,2.89,7.63,4.74,12.32,5.1.55.04,1.1.08,1.65.08s1.11-.04,1.65-.08c10.55-.81,18.95-9.21,19.76-19.76h-8.3Z"/>
  <path fill="#d6d6d6" d="M34.72,11.61c-.55-.04-1.1-.08-1.65-.08s-1.11.04-1.65.08c-11.1.85-19.84,10.1-19.84,21.41,0,5.34,1.96,10.22,5.18,13.98l5.87-5.87c-1.74-2.24-2.79-5.05-2.79-8.1,0-6.74,5.05-12.3,11.57-13.11.54-.07,1.09-.11,1.65-.11s1.11.05,1.65.11c2.41.3,4.62,1.25,6.45,2.67l5.87-5.87c-3.37-2.89-7.63-4.74-12.32-5.1Z"/>
</svg>
