<?xml version="1.0" encoding="UTF-8"?> <svg xmlns="http://www.w3.org/2000/svg" id="Layer_1" data-name="Layer 1" viewBox="0 0 1371.92 172.98"><defs><style> .cls-1 { fill: #282b2e; } .cls-1, .cls-2 { stroke-width: 0px; } .cls-2 { fill: #56b957; } </style></defs><path class="cls-1" d="m57.98,40.12l-5.93,33.16h58.2l-5.27,30.09h-58.2l-10.76,61.06H0L27.45,8.94h97.73l-5.49,31.19h-61.72Z"></path><path class="cls-1" d="m226.66,164.43l-5.27-30.97h-59.96l-18.67,30.97h-41.73L200.08,8.94h35.58l29.43,155.5h-38.43Zm-17.13-115.52l-32.5,55.13h40.63l-8.13-55.13Z"></path><path class="cls-1" d="m407.63,164.43h-41.29l-26.14-62.59h-14.93l-10.54,62.59h-35.58l27.45-155.5h53.15c34.26,0,54.47,15.15,54.47,41.29s-14.71,41.29-38.21,47.22l31.63,66.99Zm-61.28-88.73c19.55,0,30.97-6.15,30.97-20.21,0-12.96-9.88-16.69-25.04-16.69h-15.59l-6.59,36.9h16.25Z"></path><path class="cls-1" d="m564.23,164.43l20.43-111.35h-.88l-60.4,111.35h-25.7l-20.64-111.35h-.88l-18.67,111.35h-34.26l27.45-155.5h51.17l18.01,100.81h.88l52.49-100.81h54.25l-27.45,155.5h-35.8Z"></path><path class="cls-1" d="m659.99,8.94h57.54c34.92,0,73.36,18.67,73.36,65.45,0,54.69-40.41,90.05-94.88,90.05h-63.47l27.45-155.5Zm14.06,123.87h23.5c36.46,0,55.35-26.36,55.35-54.03,0-21.3-13.4-38.87-42.61-38.87h-19.99l-16.25,92.9Z"></path><path class="cls-1" d="m929.91,164.43h-41.29l-26.14-62.59h-14.93l-10.54,62.59h-35.58l27.45-155.5h53.15c34.26,0,54.47,15.15,54.47,41.29s-14.71,41.29-38.21,47.22l31.63,66.99Zm-61.28-88.73c19.55,0,30.97-6.15,30.97-20.21,0-12.96-9.88-16.69-25.04-16.69h-15.59l-6.59,36.9h16.25Z"></path><path class="cls-1" d="m1144.39,164.43l27.45-155.5h36.68l-27.45,155.5h-36.68Z"></path><path class="cls-1" d="m1241.02,8.94h57.54c34.92,0,73.36,18.67,73.36,65.45,0,54.69-40.41,90.05-94.88,90.05h-63.47l27.45-155.5Zm14.06,123.87h23.5c36.46,0,55.35-26.36,55.35-54.03,0-21.3-13.4-38.87-42.61-38.87h-19.99l-16.25,92.9Z"></path><g><path class="cls-2" d="m1035.24,68.74v47.23c0,6.6,5.35,11.95,11.95,11.95s11.95-5.35,11.95-11.95v-47.23c0-6.6-5.35-11.95-11.95-11.95s-11.95,5.35-11.95,11.95Z"></path><path class="cls-2" d="m1105.1,52.66c-6.81,2.18-10.56,9.47-8.37,16.28,8.87,27.65,4.26,49.71-13.68,65.56-10.09,8.92-23.23,13.35-37.03,12.47-15.36-.98-30.17-8.4-40.64-20.35-14.09-16.08-15.93-35.29-5.65-58.73,2.87-6.55-.11-14.18-6.65-17.06-6.55-2.88-14.19.11-17.06,6.65-18.1,41.25-4.61,69.64,9.89,86.19,14.97,17.09,36.29,27.71,58.47,29.12,1.72.11,3.42.17,5.13.17,18.84,0,36.68-6.68,50.7-19.07,18.12-16.01,36.51-45.12,21.19-92.88-2.18-6.81-9.47-10.55-16.28-8.37Z"></path></g><g><path class="cls-2" d="m1127.13,7.45c0-.14,0-.28,0-.42,0-.12,0-.24-.02-.36-.02-.13-.05-.26-.08-.38-.03-.12-.05-.25-.09-.36-.04-.12-.1-.24-.15-.35-.05-.12-.1-.23-.16-.34-.06-.11-.14-.21-.21-.31-.07-.11-.15-.21-.23-.31-.08-.09-.17-.17-.25-.26-.1-.1-.2-.2-.31-.28-.09-.07-.19-.13-.28-.19-.13-.08-.25-.17-.39-.23-.03-.02-.06-.04-.09-.05-.08-.04-.17-.06-.25-.09-.09-.04-.18-.09-.28-.12-1.36-.41-33.48-9.89-55.95,4.87-11.41,7.49-18.17,19.76-20.1,36.48,0,.05,0,.09,0,.14-.01.14,0,.28,0,.42,0,.13,0,.25.02.37.02.13.04.25.07.38.03.13.05.25.1.38.04.12.09.24.14.35.05.11.1.23.16.34.07.12.14.23.22.34.07.1.13.19.21.28.09.11.19.2.29.3.09.08.17.17.26.24.1.08.22.16.33.23.11.07.22.14.34.2.04.02.08.06.13.08,6.72,3.18,13.43,4.78,20.09,4.78,4.89,0,9.74-.86,14.54-2.59,26.01-9.34,40.99-40.76,41.61-42.1.04-.09.06-.19.1-.28.03-.09.08-.17.11-.26.01-.03.01-.07.02-.1.04-.15.06-.29.09-.44.02-.11.04-.23.05-.34Zm-44.67,36.03c-7.65,2.75-15.54,2.75-23.51.08,6.12-5.98,12.98-11.34,23.4-14.45,1.26-.38,2.24-1.46,2.27-2.77.04-2.17-1.97-3.55-3.84-2.99-9.82,2.91-16.87,7.68-22.76,12.93,2.66-9.48,7.57-16.65,14.7-21.35,14.68-9.66,35.3-6.96,44.52-5.07-4.87,8.56-17.21,27.31-34.77,33.62Z"></path><path class="cls-2" d="m967.31,7.79c.02.15.05.29.09.44,0,.03,0,.07.02.1.03.09.07.17.11.26.04.09.06.19.1.28.62,1.33,15.6,32.75,41.61,42.1,4.79,1.72,9.65,2.59,14.54,2.59,6.65,0,13.37-1.59,20.09-4.78.05-.02.08-.05.13-.08.12-.06.23-.13.34-.2.11-.07.22-.15.33-.23.09-.08.18-.16.26-.24.1-.1.2-.19.29-.3.07-.09.14-.19.21-.28.08-.11.16-.22.22-.34.06-.11.11-.22.16-.34.05-.12.1-.23.14-.35.04-.12.07-.25.1-.38.03-.13.06-.25.07-.38.01-.12.02-.25.02-.37,0-.14,0-.28,0-.42,0-.05,0-.09,0-.14-1.93-16.71-8.69-28.99-20.1-36.48-22.47-14.76-54.59-5.28-55.95-4.87-.1.03-.19.08-.28.12-.08.03-.17.05-.25.09-.03.02-.06.04-.09.05-.14.07-.27.15-.39.23-.1.06-.19.12-.28.19-.11.09-.21.19-.31.28-.09.08-.18.16-.25.26-.09.1-.16.21-.23.31-.07.1-.15.2-.21.31-.06.11-.11.23-.16.34-.05.12-.11.23-.15.35-.04.12-.06.24-.09.36-.03.13-.06.25-.08.38-.02.12-.02.24-.02.36,0,.14-.01.28,0,.42,0,.11.03.23.05.34Zm9.85,2.06c9.21-1.9,29.84-4.59,44.52,5.07,7.13,4.7,12.05,11.87,14.7,21.35-5.9-5.25-12.94-10.02-22.76-12.93-1.87-.55-3.89.83-3.84,2.99.03,1.31,1.01,2.4,2.27,2.77,10.41,3.11,17.28,8.47,23.4,14.45-7.97,2.66-15.86,2.67-23.51-.08-17.57-6.31-29.9-25.06-34.77-33.62Z"></path></g></svg> 