<?xml version="1.0" encoding="UTF-8"?>
<svg id="Layer_1" xmlns="http://www.w3.org/2000/svg" version="1.1" viewBox="0 0 1147.5 514.4">
  <!-- Generator: Adobe Illustrator 30.6.0, SVG Export Plug-In . SVG Version: 2.1.4 Build 109)  -->
  <defs>
    <style>
      .st0 {
        fill: #fff;
      }
    </style>
  </defs>
  <g id="dots">
    <circle id="Ellipse_4" class="st0" cx="230.8" cy="2.2" r="2.2"/>
    <circle id="Ellipse_5" class="st0" cx="248.4" cy="2.2" r="2.2"/>
    <circle id="Ellipse_6" class="st0" cx="266" cy="2.2" r="2.2"/>
    <circle id="Ellipse_7" class="st0" cx="283.6" cy="2.2" r="2.2"/>
    <circle id="Ellipse_8" class="st0" cx="301.2" cy="2.2" r="2.2"/>
    <path id="Path_37" class="st0" d="M316.6,2.2C316.6,1,317.5,0,318.8,0s2.2,1,2.2,2.2-1,2.2-2.2,2.2h0c-1.2,0-2.2-1-2.2-2.2h0Z"/>
    <circle id="Ellipse_9" class="st0" cx="336.3" cy="2.2" r="2.2"/>
    <circle id="Ellipse_10" class="st0" cx="353.9" cy="2.2" r="2.2"/>
    <circle id="Ellipse_11" class="st0" cx="371.5" cy="2.2" r="2.2"/>
    <circle id="Ellipse_12" class="st0" cx="389.1" cy="2.2" r="2.2"/>
    <circle id="Ellipse_13" class="st0" cx="406.7" cy="2.2" r="2.2"/>
    <circle id="Ellipse_14" class="st0" cx="424.3" cy="2.2" r="2.2"/>
    <circle id="Ellipse_15" class="st0" cx="441.9" cy="2.2" r="2.2"/>
    <circle id="Ellipse_16" class="st0" cx="459.5" cy="2.2" r="2.2"/>
    <path id="Path_38" class="st0" d="M474.8,2.2C474.8,1,475.8,0,477,0c1.2,0,2.2,1,2.2,2.2s-1,2.2-2.2,2.2h0c-1.2,0-2.2-1-2.2-2.2h0Z"/>
    <circle id="Ellipse_17" class="st0" cx="494.6" cy="2.2" r="2.2"/>
    <path id="Path_39" class="st0" d="M721.1,2.2C721.1,1,722,0,723.3,0c1.2,0,2.2,1,2.2,2.2s-1,2.2-2.2,2.2h0c-1.2,0-2.2-1-2.2-2.2h0Z"/>
    <path id="Path_40" class="st0" d="M826.6,2.2c0-1.2,1-2.2,2.2-2.2s2.2,1,2.2,2.2-1,2.2-2.2,2.2h0c-1.2,0-2.2-1-2.2-2.2Z"/>
    <path id="Path_41" class="st0" d="M844.2,2.2C844.2,1,845.2,0,846.4,0c1.2,0,2.2,1,2.2,2.2s-1,2.2-2.2,2.2h0c-1.2,0-2.2-1-2.2-2.2Z"/>
    <path id="Path_42" class="st0" d="M158.3,19.8c0-1.2,1-2.2,2.2-2.2s2.2,1,2.2,2.2-1,2.2-2.2,2.2h0c-1.2,0-2.2-1-2.2-2.2h0Z"/>
    <path id="Path_43" class="st0" d="M175.9,19.8c0-1.2,1-2.2,2.2-2.2,1.2,0,2.2,1,2.2,2.2,0,1.2-1,2.2-2.2,2.2-1.2,0-2.2-1-2.2-2.2h0Z"/>
    <path id="Path_44" class="st0" d="M193.5,19.8c0-1.2,1-2.2,2.2-2.2s2.2,1,2.2,2.2-1,2.2-2.2,2.2h0c-1.2,0-2.2-1-2.2-2.2h0Z"/>
    <path id="Path_45" class="st0" d="M211,19.8c0-1.2,1-2.2,2.2-2.2s2.2,1,2.2,2.2-1,2.2-2.2,2.2h0c-1.2,0-2.2-1-2.2-2.2h0Z"/>
    <path id="Path_46" class="st0" d="M228.6,19.8c0-1.2,1-2.2,2.2-2.2,1.2,0,2.2,1,2.2,2.2,0,1.2-1,2.2-2.2,2.2-1.2,0-2.2-1-2.2-2.2h0Z"/>
    <path id="Path_47" class="st0" d="M246.2,19.8c0-1.2,1-2.2,2.2-2.2s2.2,1,2.2,2.2-1,2.2-2.2,2.2h0c-1.2,0-2.2-1-2.2-2.2h0Z"/>
    <path id="Path_48" class="st0" d="M263.8,19.8c0-1.2,1-2.2,2.2-2.2s2.2,1,2.2,2.2-1,2.2-2.2,2.2h0c-1.2,0-2.2-1-2.2-2.2h0Z"/>
    <path id="Path_49" class="st0" d="M281.4,19.8c0-1.2,1-2.2,2.2-2.2s2.2,1,2.2,2.2-1,2.2-2.2,2.2h0c-1.2,0-2.2-1-2.2-2.2h0Z"/>
    <path id="Path_50" class="st0" d="M316.6,19.8c0-1.2,1-2.2,2.2-2.2s2.2,1,2.2,2.2-1,2.2-2.2,2.2h0c-1.2,0-2.2-1-2.2-2.2h0Z"/>
    <path id="Path_51" class="st0" d="M334.2,19.8c0-1.2,1-2.2,2.2-2.2,1.2,0,2.2,1,2.2,2.2,0,1.2-1,2.2-2.2,2.2-1.2,0-2.2-1-2.2-2.2h0Z"/>
    <path id="Path_52" class="st0" d="M351.7,19.8c0-1.2,1-2.2,2.2-2.2s2.2,1,2.2,2.2-1,2.2-2.2,2.2h0c-1.2,0-2.2-1-2.2-2.2h0Z"/>
    <path id="Path_53" class="st0" d="M369.3,19.8c0-1.2,1-2.2,2.2-2.2s2.2,1,2.2,2.2-1,2.2-2.2,2.2h0c-1.2,0-2.2-1-2.2-2.2h0Z"/>
    <path id="Path_54" class="st0" d="M386.9,19.8c0-1.2,1-2.2,2.2-2.2s2.2,1,2.2,2.2-1,2.2-2.2,2.2h0c-1.2,0-2.2-1-2.2-2.2h0Z"/>
    <path id="Path_55" class="st0" d="M404.5,19.8c0-1.2,1-2.2,2.2-2.2,1.2,0,2.2,1,2.2,2.2,0,1.2-1,2.2-2.2,2.2-1.2,0-2.2-1-2.2-2.2h0Z"/>
    <path id="Path_56" class="st0" d="M422.1,19.8c0-1.2,1-2.2,2.2-2.2s2.2,1,2.2,2.2-1,2.2-2.2,2.2h0c-1.2,0-2.2-1-2.2-2.2h0Z"/>
    <path id="Path_57" class="st0" d="M439.7,19.8c0-1.2,1-2.2,2.2-2.2s2.2,1,2.2,2.2-1,2.2-2.2,2.2h0c-1.2,0-2.2-1-2.2-2.2h0Z"/>
    <path id="Path_58" class="st0" d="M457.3,19.8c0-1.2,1-2.2,2.2-2.2s2.2,1,2.2,2.2-1,2.2-2.2,2.2h0c-1.2,0-2.2-1-2.2-2.2h0Z"/>
    <path id="Path_59" class="st0" d="M474.8,19.8c0-1.2,1-2.2,2.2-2.2s2.2,1,2.2,2.2-1,2.2-2.2,2.2h0c-1.2,0-2.2-1-2.2-2.2h0Z"/>
    <path id="Path_60" class="st0" d="M580.4,19.8c0-1.2,1-2.2,2.2-2.2s2.2,1,2.2,2.2-1,2.2-2.2,2.2h0c-1.2,0-2.2-1-2.2-2.2h0Z"/>
    <path id="Path_61" class="st0" d="M598,19.8c0-1.2,1-2.2,2.2-2.2,1.2,0,2.2,1,2.2,2.2,0,1.2-1,2.2-2.2,2.2-1.2,0-2.2-1-2.2-2.2h0Z"/>
    <path id="Path_62" class="st0" d="M615.5,19.8c0-1.2,1-2.2,2.2-2.2s2.2,1,2.2,2.2-1,2.2-2.2,2.2h0c-1.2,0-2.2-1-2.2-2.2h0Z"/>
    <path id="Path_63" class="st0" d="M721.1,19.8c0-1.2,1-2.2,2.2-2.2s2.2,1,2.2,2.2-1,2.2-2.2,2.2h0c-1.2,0-2.2-1-2.2-2.2h0Z"/>
    <path id="Path_64" class="st0" d="M738.6,19.8c0-1.2,1-2.2,2.2-2.2,1.2,0,2.2,1,2.2,2.2,0,1.2-1,2.2-2.2,2.2-1.2,0-2.2-1-2.2-2.2h0Z"/>
    <path id="Path_65" class="st0" d="M756.2,19.8c0-1.2,1-2.2,2.2-2.2s2.2,1,2.2,2.2-1,2.2-2.2,2.2h0c-1.2,0-2.2-1-2.2-2.2h0Z"/>
    <path id="Path_66" class="st0" d="M879.3,19.8c0-1.2,1-2.2,2.2-2.2s2.2,1,2.2,2.2-1,2.2-2.2,2.2h0c-1.2,0-2.2-1-2.2-2.2h0Z"/>
    <path id="Path_67" class="st0" d="M896.9,19.8c0-1.2,1-2.2,2.2-2.2,1.2,0,2.2,1,2.2,2.2,0,1.2-1,2.2-2.2,2.2-1.2,0-2.2-1-2.2-2.2h0Z"/>
    <path id="Path_68" class="st0" d="M984.9,19.8c0-1.2,1-2.2,2.2-2.2s2.2,1,2.2,2.2-1,2.2-2.2,2.2h0c-1.2,0-2.2-1-2.2-2.2h0Z"/>
    <path id="Path_69" class="st0" d="M1002.5,19.8c0-1.2,1-2.2,2.2-2.2s2.2,1,2.2,2.2-1,2.2-2.2,2.2h0c-1.2,0-2.2-1-2.2-2.2h0Z"/>
    <path id="Path_70" class="st0" d="M1020,19.8c0-1.2,1-2.2,2.2-2.2s2.2,1,2.2,2.2-1,2.2-2.2,2.2h0c-1.2,0-2.2-1-2.2-2.2h0Z"/>
    <circle id="Ellipse_18" class="st0" cx="37.4" cy="37.4" r="2.2"/>
    <circle id="Ellipse_19" class="st0" cx="142.9" cy="37.4" r="2.2"/>
    <circle id="Ellipse_20" class="st0" cx="160.5" cy="37.4" r="2.2"/>
    <circle id="Ellipse_21" class="st0" cx="230.8" cy="37.4" r="2.2"/>
    <circle id="Ellipse_22" class="st0" cx="266" cy="37.4" r="2.2"/>
    <circle id="Ellipse_23" class="st0" cx="283.6" cy="37.4" r="2.2"/>
    <circle id="Ellipse_24" class="st0" cx="353.9" cy="37.4" r="2.2"/>
    <circle id="Ellipse_25" class="st0" cx="371.5" cy="37.4" r="2.2"/>
    <circle id="Ellipse_26" class="st0" cx="389.1" cy="37.4" r="2.2"/>
    <circle id="Ellipse_27" class="st0" cx="406.7" cy="37.4" r="2.2"/>
    <circle id="Ellipse_28" class="st0" cx="424.3" cy="37.4" r="2.2"/>
    <circle id="Ellipse_29" class="st0" cx="441.9" cy="37.4" r="2.2"/>
    <circle id="Ellipse_30" class="st0" cx="459.5" cy="37.4" r="2.2"/>
    <path id="Path_71" class="st0" d="M703.5,37.4c0-1.2,1-2.2,2.2-2.2,1.2,0,2.2,1,2.2,2.2s-1,2.2-2.2,2.2h0c-1.2,0-2.2-1-2.2-2.2h0Z"/>
    <path id="Path_72" class="st0" d="M756.2,37.4c0-1.2,1-2.2,2.2-2.2,1.2,0,2.2,1,2.2,2.2s-1,2.2-2.2,2.2h0c-1.2,0-2.2-1-2.2-2.2h0Z"/>
    <path id="Path_73" class="st0" d="M773.8,37.4c0-1.2,1-2.2,2.2-2.2,1.2,0,2.2,1,2.2,2.2s-1,2.2-2.2,2.2h0c-1.2,0-2.2-1-2.2-2.2h0Z"/>
    <path id="Path_74" class="st0" d="M791.4,37.4c0-1.2,1-2.2,2.2-2.2,1.2,0,2.2,1,2.2,2.2s-1,2.2-2.2,2.2h0c-1.2,0-2.2-1-2.2-2.2h0Z"/>
    <path id="Path_75" class="st0" d="M809,37.4c0-1.2,1-2.2,2.2-2.2,1.2,0,2.2,1,2.2,2.2s-1,2.2-2.2,2.2h0c-1.2,0-2.2-1-2.2-2.2h0Z"/>
    <path id="Path_76" class="st0" d="M826.6,37.4c0-1.2,1-2.2,2.2-2.2,1.2,0,2.2,1,2.2,2.2s-1,2.2-2.2,2.2h0c-1.2,0-2.2-1-2.2-2.2h0Z"/>
    <path id="Path_77" class="st0" d="M844.2,37.4c0-1.2,1-2.2,2.2-2.2s2.2,1,2.2,2.2c0,1.2-1,2.2-2.2,2.2h0c-1.2,0-2.2-1-2.2-2.2h0Z"/>
    <path id="Path_78" class="st0" d="M861.8,37.4c0-1.2,1-2.2,2.2-2.2s2.2,1,2.2,2.2c0,1.2-1,2.2-2.2,2.2h0c-1.2,0-2.2-1-2.2-2.2h0Z"/>
    <path id="Path_79" class="st0" d="M879.3,37.4c0-1.2,1-2.2,2.2-2.2s2.2,1,2.2,2.2c0,1.2-1,2.2-2.2,2.2h0c-1.2,0-2.2-1-2.2-2.2h0Z"/>
    <path id="Path_80" class="st0" d="M896.9,37.4c0-1.2,1-2.2,2.2-2.2s2.2,1,2.2,2.2-1,2.2-2.2,2.2c-1.2,0-2.2-1-2.2-2.2h0Z"/>
    <path id="Path_81" class="st0" d="M914.5,37.4c0-1.2,1-2.2,2.2-2.2s2.2,1,2.2,2.2c0,1.2-1,2.2-2.2,2.2h0c-1.2,0-2.2-1-2.2-2.2h0Z"/>
    <path id="Path_82" class="st0" d="M932.1,37.4c0-1.2,1-2.2,2.2-2.2s2.2,1,2.2,2.2c0,1.2-1,2.2-2.2,2.2h0c-1.2,0-2.2-1-2.2-2.2h0Z"/>
    <path id="Path_83" class="st0" d="M949.7,37.4c0-1.2,1-2.2,2.2-2.2s2.2,1,2.2,2.2c0,1.2-1,2.2-2.2,2.2h0c-1.2,0-2.2-1-2.2-2.2h0Z"/>
    <path id="Path_84" class="st0" d="M1002.5,37.4c0-1.2,1-2.2,2.2-2.2s2.2,1,2.2,2.2c0,1.2-1,2.2-2.2,2.2h0c-1.2,0-2.2-1-2.2-2.2h0Z"/>
    <circle id="Ellipse_31" class="st0" cx="2.2" cy="55" r="2.2"/>
    <circle id="Ellipse_32" class="st0" cx="19.8" cy="55" r="2.2"/>
    <circle id="Ellipse_33" class="st0" cx="37.4" cy="55" r="2.2"/>
    <circle id="Ellipse_34" class="st0" cx="55" cy="55" r="2.2"/>
    <circle id="Ellipse_35" class="st0" cx="72.5" cy="55" r="2.2"/>
    <circle id="Ellipse_36" class="st0" cx="90.1" cy="55" r="2.2"/>
    <circle id="Ellipse_37" class="st0" cx="107.7" cy="55" r="2.2"/>
    <circle id="Ellipse_38" class="st0" cx="125.3" cy="55" r="2.2"/>
    <circle id="Ellipse_39" class="st0" cx="142.9" cy="55" r="2.2"/>
    <circle id="Ellipse_40" class="st0" cx="160.5" cy="55" r="2.2"/>
    <circle id="Ellipse_41" class="st0" cx="178.1" cy="55" r="2.2"/>
    <circle id="Ellipse_42" class="st0" cx="195.7" cy="55" r="2.2"/>
    <path id="Path_85" class="st0" d="M211,55c0-1.2,1-2.2,2.2-2.2,1.2,0,2.2,1,2.2,2.2,0,1.2-1,2.2-2.2,2.2h0c-1.2,0-2.2-1-2.2-2.2Z"/>
    <circle id="Ellipse_43" class="st0" cx="230.8" cy="55" r="2.2"/>
    <circle id="Ellipse_44" class="st0" cx="266" cy="55" r="2.2"/>
    <circle id="Ellipse_45" class="st0" cx="301.2" cy="55" r="2.2"/>
    <path id="Path_86" class="st0" d="M316.6,55c0-1.2,1-2.2,2.2-2.2,1.2,0,2.2,1,2.2,2.2,0,1.2-1,2.2-2.2,2.2h0c-1.2,0-2.2-1-2.2-2.2Z"/>
    <circle id="Ellipse_46" class="st0" cx="336.3" cy="55" r="2.2"/>
    <circle id="Ellipse_47" class="st0" cx="371.5" cy="55" r="2.2"/>
    <circle id="Ellipse_48" class="st0" cx="389.1" cy="55" r="2.2"/>
    <circle id="Ellipse_49" class="st0" cx="406.7" cy="55" r="2.2"/>
    <circle id="Ellipse_50" class="st0" cx="424.3" cy="55" r="2.2"/>
    <circle id="Ellipse_51" class="st0" cx="441.9" cy="55" r="2.2"/>
    <circle id="Ellipse_52" class="st0" cx="459.5" cy="55" r="2.2"/>
    <path id="Path_87" class="st0" d="M580.4,55c0-1.2,1-2.2,2.2-2.2,1.2,0,2.2,1,2.2,2.2,0,1.2-1,2.2-2.2,2.2h0c-1.2,0-2.2-1-2.2-2.2h0Z"/>
    <path id="Path_88" class="st0" d="M598,55c0-1.2,1-2.2,2.2-2.2,1.2,0,2.2,1,2.2,2.2s-1,2.2-2.2,2.2c-1.2,0-2.2-1-2.2-2.2h0Z"/>
    <path id="Path_89" class="st0" d="M615.5,55c0-1.2,1-2.2,2.2-2.2,1.2,0,2.2,1,2.2,2.2,0,1.2-1,2.2-2.2,2.2h0c-1.2,0-2.2-1-2.2-2.2Z"/>
    <path id="Path_90" class="st0" d="M633.1,55c0-1.2,1-2.2,2.2-2.2,1.2,0,2.2,1,2.2,2.2,0,1.2-1,2.2-2.2,2.2h0c-1.2,0-2.2-1-2.2-2.2Z"/>
    <path id="Path_91" class="st0" d="M650.7,55c0-1.2,1-2.2,2.2-2.2,1.2,0,2.2,1,2.2,2.2,0,1.2-1,2.2-2.2,2.2h0c-1.2,0-2.2-1-2.2-2.2h0Z"/>
    <path id="Path_92" class="st0" d="M668.3,55c0-1.2,1-2.2,2.2-2.2,1.2,0,2.2,1,2.2,2.2s-1,2.2-2.2,2.2c-1.2,0-2.2-1-2.2-2.2h0Z"/>
    <path id="Path_93" class="st0" d="M685.9,55c0-1.2,1-2.2,2.2-2.2,1.2,0,2.2,1,2.2,2.2,0,1.2-1,2.2-2.2,2.2h0c-1.2,0-2.2-1-2.2-2.2Z"/>
    <path id="Path_94" class="st0" d="M703.5,55c0-1.2,1-2.2,2.2-2.2,1.2,0,2.2,1,2.2,2.2,0,1.2-1,2.2-2.2,2.2h0c-1.2,0-2.2-1-2.2-2.2Z"/>
    <path id="Path_95" class="st0" d="M721.1,55c0-1.2,1-2.2,2.2-2.2,1.2,0,2.2,1,2.2,2.2,0,1.2-1,2.2-2.2,2.2h0c-1.2,0-2.2-1-2.2-2.2h0Z"/>
    <path id="Path_96" class="st0" d="M738.6,55c0-1.2,1-2.2,2.2-2.2,1.2,0,2.2,1,2.2,2.2s-1,2.2-2.2,2.2c-1.2,0-2.2-1-2.2-2.2h0Z"/>
    <path id="Path_97" class="st0" d="M756.2,55c0-1.2,1-2.2,2.2-2.2,1.2,0,2.2,1,2.2,2.2,0,1.2-1,2.2-2.2,2.2h0c-1.2,0-2.2-1-2.2-2.2Z"/>
    <path id="Path_98" class="st0" d="M773.8,55c0-1.2,1-2.2,2.2-2.2,1.2,0,2.2,1,2.2,2.2,0,1.2-1,2.2-2.2,2.2h0c-1.2,0-2.2-1-2.2-2.2Z"/>
    <path id="Path_99" class="st0" d="M791.4,55c0-1.2,1-2.2,2.2-2.2,1.2,0,2.2,1,2.2,2.2,0,1.2-1,2.2-2.2,2.2h0c-1.2,0-2.2-1-2.2-2.2h0Z"/>
    <path id="Path_100" class="st0" d="M809,55c0-1.2,1-2.2,2.2-2.2,1.2,0,2.2,1,2.2,2.2,0,1.2-1,2.2-2.2,2.2h0c-1.2,0-2.2-1-2.2-2.2h0Z"/>
    <path id="Path_101" class="st0" d="M826.6,55c0-1.2,1-2.2,2.2-2.2,1.2,0,2.2,1,2.2,2.2,0,1.2-1,2.2-2.2,2.2h0c-1.2,0-2.2-1-2.2-2.2Z"/>
    <path id="Path_102" class="st0" d="M844.2,55c0-1.2,1-2.2,2.2-2.2s2.2,1,2.2,2.2c0,1.2-1,2.2-2.2,2.2h0c-1.2,0-2.2-1-2.2-2.2Z"/>
    <path id="Path_103" class="st0" d="M861.8,55c0-1.2,1-2.2,2.2-2.2s2.2,1,2.2,2.2c0,1.2-1,2.2-2.2,2.2h0c-1.2,0-2.2-1-2.2-2.2h0Z"/>
    <path id="Path_104" class="st0" d="M879.3,55c0-1.2,1-2.2,2.2-2.2s2.2,1,2.2,2.2c0,1.2-1,2.2-2.2,2.2h0c-1.2,0-2.2-1-2.2-2.2h0Z"/>
    <path id="Path_105" class="st0" d="M896.9,55c0-1.2,1-2.2,2.2-2.2,1.2,0,2.2,1,2.2,2.2s-1,2.2-2.2,2.2-2.2-1-2.2-2.2h0Z"/>
    <path id="Path_106" class="st0" d="M914.5,55c0-1.2,1-2.2,2.2-2.2,1.2,0,2.2,1,2.2,2.2,0,1.2-1,2.2-2.2,2.2h0c-1.2,0-2.2-1-2.2-2.2Z"/>
    <path id="Path_107" class="st0" d="M932.1,55c0-1.2,1-2.2,2.2-2.2s2.2,1,2.2,2.2c0,1.2-1,2.2-2.2,2.2h0c-1.2,0-2.2-1-2.2-2.2Z"/>
    <path id="Path_108" class="st0" d="M949.7,55c0-1.2,1-2.2,2.2-2.2s2.2,1,2.2,2.2c0,1.2-1,2.2-2.2,2.2h0c-1.2,0-2.2-1-2.2-2.2h0Z"/>
    <path id="Path_109" class="st0" d="M967.3,55c0-1.2,1-2.2,2.2-2.2,1.2,0,2.2,1,2.2,2.2s-1,2.2-2.2,2.2-2.2-1-2.2-2.2h0Z"/>
    <path id="Path_110" class="st0" d="M984.9,55c0-1.2,1-2.2,2.2-2.2,1.2,0,2.2,1,2.2,2.2,0,1.2-1,2.2-2.2,2.2h0c-1.2,0-2.2-1-2.2-2.2Z"/>
    <path id="Path_111" class="st0" d="M1002.5,55c0-1.2,1-2.2,2.2-2.2s2.2,1,2.2,2.2c0,1.2-1,2.2-2.2,2.2h0c-1.2,0-2.2-1-2.2-2.2Z"/>
    <path id="Path_112" class="st0" d="M1020,55c0-1.2,1-2.2,2.2-2.2s2.2,1,2.2,2.2c0,1.2-1,2.2-2.2,2.2h0c-1.2,0-2.2-1-2.2-2.2h0Z"/>
    <path id="Path_113" class="st0" d="M1037.6,55c0-1.2,1-2.2,2.2-2.2s2.2,1,2.2,2.2c0,1.2-1,2.2-2.2,2.2h0c-1.2,0-2.2-1-2.2-2.2h0Z"/>
    <path id="Path_114" class="st0" d="M1055.2,55c0-1.2,1-2.2,2.2-2.2,1.2,0,2.2,1,2.2,2.2,0,1.2-1,2.2-2.2,2.2h0c-1.2,0-2.2-1-2.2-2.2Z"/>
    <path id="Path_115" class="st0" d="M1072.8,55c0-1.2,1-2.2,2.2-2.2s2.2,1,2.2,2.2c0,1.2-1,2.2-2.2,2.2h0c-1.2,0-2.2-1-2.2-2.2Z"/>
    <path id="Path_116" class="st0" d="M1090.4,55c0-1.2,1-2.2,2.2-2.2s2.2,1,2.2,2.2c0,1.2-1,2.2-2.2,2.2h0c-1.2,0-2.2-1-2.2-2.2h0Z"/>
    <path id="Path_117" class="st0" d="M1108,55c0-1.2,1-2.2,2.2-2.2s2.2,1,2.2,2.2c0,1.2-1,2.2-2.2,2.2h0c-1.2,0-2.2-1-2.2-2.2h0Z"/>
    <path id="Path_118" class="st0" d="M1125.6,55c0-1.2,1-2.2,2.2-2.2,1.2,0,2.2,1,2.2,2.2,0,1.2-1,2.2-2.2,2.2h0c-1.2,0-2.2-1-2.2-2.2Z"/>
    <path id="Path_119" class="st0" d="M1143.1,55c0-1.2,1-2.2,2.2-2.2s2.2,1,2.2,2.2c0,1.2-1,2.2-2.2,2.2h0c-1.2,0-2.2-1-2.2-2.2Z"/>
    <path id="Path_120" class="st0" d="M0,72.5c0-1.2,1-2.2,2.2-2.2,1.2,0,2.2,1,2.2,2.2s-1,2.2-2.2,2.2h0c-1.2,0-2.2-1-2.2-2.2Z"/>
    <path id="Path_121" class="st0" d="M17.6,72.5c0-1.2,1-2.2,2.2-2.2,1.2,0,2.2,1,2.2,2.2,0,1.2-1,2.2-2.2,2.2h0c-1.2,0-2.2-1-2.2-2.2h0Z"/>
    <path id="Path_122" class="st0" d="M35.2,72.5c0-1.2,1-2.2,2.2-2.2,1.2,0,2.2,1,2.2,2.2,0,1.2-1,2.2-2.2,2.2s-2.2-1-2.2-2.2h0Z"/>
    <path id="Path_123" class="st0" d="M52.8,72.5c0-1.2,1-2.2,2.2-2.2,1.2,0,2.2,1,2.2,2.2,0,1.2-1,2.2-2.2,2.2-1.2,0-2.2-1-2.2-2.2h0Z"/>
    <path id="Path_124" class="st0" d="M70.3,72.5c0-1.2,1-2.2,2.2-2.2,1.2,0,2.2,1,2.2,2.2,0,1.2-1,2.2-2.2,2.2h0c-1.2,0-2.2-1-2.2-2.2Z"/>
    <path id="Path_125" class="st0" d="M87.9,72.5c0-1.2,1-2.2,2.2-2.2,1.2,0,2.2,1,2.2,2.2,0,1.2-1,2.2-2.2,2.2h0c-1.2,0-2.2-1-2.2-2.2h0Z"/>
    <path id="Path_126" class="st0" d="M105.5,72.5c0-1.2,1-2.2,2.2-2.2,1.2,0,2.2,1,2.2,2.2,0,1.2-1,2.2-2.2,2.2s-2.2-1-2.2-2.2h0Z"/>
    <path id="Path_127" class="st0" d="M123.1,72.5c0-1.2,1-2.2,2.2-2.2,1.2,0,2.2,1,2.2,2.2s-1,2.2-2.2,2.2h0c-1.2,0-2.2-1-2.2-2.2Z"/>
    <path id="Path_128" class="st0" d="M140.7,72.5c0-1.2,1-2.2,2.2-2.2,1.2,0,2.2,1,2.2,2.2s-1,2.2-2.2,2.2h0c-1.2,0-2.2-1-2.2-2.2Z"/>
    <path id="Path_129" class="st0" d="M158.3,72.5c0-1.2,1-2.2,2.2-2.2,1.2,0,2.2,1,2.2,2.2s-1,2.2-2.2,2.2h0c-1.2,0-2.2-1-2.2-2.2Z"/>
    <path id="Path_130" class="st0" d="M175.9,72.5c0-1.2,1-2.2,2.2-2.2,1.2,0,2.2,1,2.2,2.2,0,1.2-1,2.2-2.2,2.2s-2.2-1-2.2-2.2h0Z"/>
    <path id="Path_131" class="st0" d="M193.5,72.5c0-1.2,1-2.2,2.2-2.2,1.2,0,2.2,1,2.2,2.2s-1,2.2-2.2,2.2h0c-1.2,0-2.2-1-2.2-2.2Z"/>
    <path id="Path_132" class="st0" d="M211,72.5c0-1.2,1-2.2,2.2-2.2,1.2,0,2.2,1,2.2,2.2s-1,2.2-2.2,2.2h0c-1.2,0-2.2-1-2.2-2.2Z"/>
    <path id="Path_133" class="st0" d="M228.6,72.5c0-1.2,1-2.2,2.2-2.2,1.2,0,2.2,1,2.2,2.2s-1,2.2-2.2,2.2h0c-1.2,0-2.2-1-2.2-2.2Z"/>
    <path id="Path_134" class="st0" d="M246.2,72.5c0-1.2,1-2.2,2.2-2.2,1.2,0,2.2,1,2.2,2.2s-1,2.2-2.2,2.2h0c-1.2,0-2.2-1-2.2-2.2h0Z"/>
    <path id="Path_135" class="st0" d="M263.8,72.5c0-1.2,1-2.2,2.2-2.2,1.2,0,2.2,1,2.2,2.2s-1,2.2-2.2,2.2h0c-1.2,0-2.2-1-2.2-2.2Z"/>
    <path id="Path_136" class="st0" d="M299,72.5c0-1.2,1-2.2,2.2-2.2,1.2,0,2.2,1,2.2,2.2s-1,2.2-2.2,2.2h0c-1.2,0-2.2-1-2.2-2.2Z"/>
    <path id="Path_137" class="st0" d="M316.6,72.5c0-1.2,1-2.2,2.2-2.2,1.2,0,2.2,1,2.2,2.2s-1,2.2-2.2,2.2h0c-1.2,0-2.2-1-2.2-2.2h0Z"/>
    <path id="Path_138" class="st0" d="M334.2,72.5c0-1.2,1-2.2,2.2-2.2,1.2,0,2.2,1,2.2,2.2,0,1.2-1,2.2-2.2,2.2-1.2,0-2.2-1-2.2-2.2h0Z"/>
    <path id="Path_139" class="st0" d="M369.3,72.5c0-1.2,1-2.2,2.2-2.2,1.2,0,2.2,1,2.2,2.2s-1,2.2-2.2,2.2h0c-1.2,0-2.2-1-2.2-2.2Z"/>
    <path id="Path_140" class="st0" d="M386.9,72.5c0-1.2,1-2.2,2.2-2.2,1.2,0,2.2,1,2.2,2.2s-1,2.2-2.2,2.2h0c-1.2,0-2.2-1-2.2-2.2h0Z"/>
    <path id="Path_141" class="st0" d="M404.5,72.5c0-1.2,1-2.2,2.2-2.2,1.2,0,2.2,1,2.2,2.2,0,1.2-1,2.2-2.2,2.2-1.2,0-2.2-1-2.2-2.2h0Z"/>
    <path id="Path_142" class="st0" d="M457.3,72.5c0-1.2,1-2.2,2.2-2.2,1.2,0,2.2,1,2.2,2.2s-1,2.2-2.2,2.2h0c-1.2,0-2.2-1-2.2-2.2Z"/>
    <path id="Path_143" class="st0" d="M474.8,72.5c0-1.2,1-2.2,2.2-2.2,1.2,0,2.2,1,2.2,2.2s-1,2.2-2.2,2.2h0c-1.2,0-2.2-1-2.2-2.2h0Z"/>
    <path id="Path_144" class="st0" d="M492.4,72.5c0-1.2,1-2.2,2.2-2.2,1.2,0,2.2,1,2.2,2.2s-1,2.2-2.2,2.2h0c-1.2,0-2.2-1-2.2-2.2Z"/>
    <path id="Path_145" class="st0" d="M562.8,72.5c0-1.2,1-2.2,2.2-2.2,1.2,0,2.2,1,2.2,2.2s-1,2.2-2.2,2.2h0c-1.2,0-2.2-1-2.2-2.2Z"/>
    <path id="Path_146" class="st0" d="M580.4,72.5c0-1.2,1-2.2,2.2-2.2,1.2,0,2.2,1,2.2,2.2s-1,2.2-2.2,2.2h0c-1.2,0-2.2-1-2.2-2.2h0Z"/>
    <path id="Path_147" class="st0" d="M615.5,72.5c0-1.2,1-2.2,2.2-2.2,1.2,0,2.2,1,2.2,2.2s-1,2.2-2.2,2.2h0c-1.2,0-2.2-1-2.2-2.2Z"/>
    <path id="Path_148" class="st0" d="M633.1,72.5c0-1.2,1-2.2,2.2-2.2,1.2,0,2.2,1,2.2,2.2s-1,2.2-2.2,2.2h0c-1.2,0-2.2-1-2.2-2.2Z"/>
    <path id="Path_149" class="st0" d="M650.7,72.5c0-1.2,1-2.2,2.2-2.2,1.2,0,2.2,1,2.2,2.2s-1,2.2-2.2,2.2h0c-1.2,0-2.2-1-2.2-2.2h0Z"/>
    <path id="Path_150" class="st0" d="M668.3,72.5c0-1.2,1-2.2,2.2-2.2,1.2,0,2.2,1,2.2,2.2,0,1.2-1,2.2-2.2,2.2-1.2,0-2.2-1-2.2-2.2h0Z"/>
    <path id="Path_151" class="st0" d="M685.9,72.5c0-1.2,1-2.2,2.2-2.2,1.2,0,2.2,1,2.2,2.2s-1,2.2-2.2,2.2h0c-1.2,0-2.2-1-2.2-2.2Z"/>
    <path id="Path_152" class="st0" d="M703.5,72.5c0-1.2,1-2.2,2.2-2.2,1.2,0,2.2,1,2.2,2.2s-1,2.2-2.2,2.2h0c-1.2,0-2.2-1-2.2-2.2Z"/>
    <path id="Path_153" class="st0" d="M721.1,72.5c0-1.2,1-2.2,2.2-2.2,1.2,0,2.2,1,2.2,2.2s-1,2.2-2.2,2.2h0c-1.2,0-2.2-1-2.2-2.2h0Z"/>
    <path id="Path_154" class="st0" d="M738.6,72.5c0-1.2,1-2.2,2.2-2.2,1.2,0,2.2,1,2.2,2.2,0,1.2-1,2.2-2.2,2.2-1.2,0-2.2-1-2.2-2.2h0Z"/>
    <path id="Path_155" class="st0" d="M756.2,72.5c0-1.2,1-2.2,2.2-2.2,1.2,0,2.2,1,2.2,2.2s-1,2.2-2.2,2.2h0c-1.2,0-2.2-1-2.2-2.2Z"/>
    <path id="Path_156" class="st0" d="M773.8,72.5c0-1.2,1-2.2,2.2-2.2,1.2,0,2.2,1,2.2,2.2s-1,2.2-2.2,2.2h0c-1.2,0-2.2-1-2.2-2.2Z"/>
    <path id="Path_157" class="st0" d="M791.4,72.5c0-1.2,1-2.2,2.2-2.2,1.2,0,2.2,1,2.2,2.2s-1,2.2-2.2,2.2h0c-1.2,0-2.2-1-2.2-2.2h0Z"/>
    <path id="Path_158" class="st0" d="M809,72.5c0-1.2,1-2.2,2.2-2.2,1.2,0,2.2,1,2.2,2.2s-1,2.2-2.2,2.2h0c-1.2,0-2.2-1-2.2-2.2h0Z"/>
    <path id="Path_159" class="st0" d="M826.6,72.5c0-1.2,1-2.2,2.2-2.2,1.2,0,2.2,1,2.2,2.2s-1,2.2-2.2,2.2h0c-1.2,0-2.2-1-2.2-2.2Z"/>
    <path id="Path_160" class="st0" d="M844.2,72.5c0-1.2,1-2.2,2.2-2.2,1.2,0,2.2,1,2.2,2.2s-1,2.2-2.2,2.2h0c-1.2,0-2.2-1-2.2-2.2Z"/>
    <path id="Path_161" class="st0" d="M861.8,72.5c0-1.2,1-2.2,2.2-2.2,1.2,0,2.2,1,2.2,2.2s-1,2.2-2.2,2.2h0c-1.2,0-2.2-1-2.2-2.2h0Z"/>
    <path id="Path_162" class="st0" d="M879.3,72.5c0-1.2,1-2.2,2.2-2.2,1.2,0,2.2,1,2.2,2.2s-1,2.2-2.2,2.2h0c-1.2,0-2.2-1-2.2-2.2h0Z"/>
    <path id="Path_163" class="st0" d="M896.9,72.5c0-1.2,1-2.2,2.2-2.2,1.2,0,2.2,1,2.2,2.2,0,1.2-1,2.2-2.2,2.2-1.2,0-2.2-1-2.2-2.2h0Z"/>
    <path id="Path_164" class="st0" d="M914.5,72.5c0-1.2,1-2.2,2.2-2.2,1.2,0,2.2,1,2.2,2.2s-1,2.2-2.2,2.2h0c-1.2,0-2.2-1-2.2-2.2Z"/>
    <path id="Path_165" class="st0" d="M932.1,72.5c0-1.2,1-2.2,2.2-2.2,1.2,0,2.2,1,2.2,2.2s-1,2.2-2.2,2.2h0c-1.2,0-2.2-1-2.2-2.2Z"/>
    <path id="Path_166" class="st0" d="M949.7,72.5c0-1.2,1-2.2,2.2-2.2,1.2,0,2.2,1,2.2,2.2s-1,2.2-2.2,2.2h0c-1.2,0-2.2-1-2.2-2.2h0Z"/>
    <path id="Path_167" class="st0" d="M967.3,72.5c0-1.2,1-2.2,2.2-2.2,1.2,0,2.2,1,2.2,2.2,0,1.2-1,2.2-2.2,2.2-1.2,0-2.2-1-2.2-2.2h0Z"/>
    <path id="Path_168" class="st0" d="M984.9,72.5c0-1.2,1-2.2,2.2-2.2,1.2,0,2.2,1,2.2,2.2s-1,2.2-2.2,2.2h0c-1.2,0-2.2-1-2.2-2.2Z"/>
    <path id="Path_169" class="st0" d="M1002.5,72.5c0-1.2,1-2.2,2.2-2.2,1.2,0,2.2,1,2.2,2.2s-1,2.2-2.2,2.2h0c-1.2,0-2.2-1-2.2-2.2Z"/>
    <path id="Path_170" class="st0" d="M1020,72.5c0-1.2,1-2.2,2.2-2.2,1.2,0,2.2,1,2.2,2.2s-1,2.2-2.2,2.2h0c-1.2,0-2.2-1-2.2-2.2h0Z"/>
    <path id="Path_171" class="st0" d="M1037.6,72.5c0-1.2,1-2.2,2.2-2.2,1.2,0,2.2,1,2.2,2.2s-1,2.2-2.2,2.2h0c-1.2,0-2.2-1-2.2-2.2h0Z"/>
    <path id="Path_172" class="st0" d="M1055.2,72.5c0-1.2,1-2.2,2.2-2.2,1.2,0,2.2,1,2.2,2.2s-1,2.2-2.2,2.2h0c-1.2,0-2.2-1-2.2-2.2Z"/>
    <path id="Path_173" class="st0" d="M1072.8,72.5c0-1.2,1-2.2,2.2-2.2,1.2,0,2.2,1,2.2,2.2s-1,2.2-2.2,2.2h0c-1.2,0-2.2-1-2.2-2.2Z"/>
    <path id="Path_174" class="st0" d="M1090.4,72.5c0-1.2,1-2.2,2.2-2.2,1.2,0,2.2,1,2.2,2.2s-1,2.2-2.2,2.2h0c-1.2,0-2.2-1-2.2-2.2h0Z"/>
    <path id="Path_175" class="st0" d="M1108,72.5c0-1.2,1-2.2,2.2-2.2,1.2,0,2.2,1,2.2,2.2s-1,2.2-2.2,2.2h0c-1.2,0-2.2-1-2.2-2.2h0Z"/>
    <path id="Path_176" class="st0" d="M1125.6,72.5c0-1.2,1-2.2,2.2-2.2,1.2,0,2.2,1,2.2,2.2s-1,2.2-2.2,2.2h0c-1.2,0-2.2-1-2.2-2.2Z"/>
    <circle id="Ellipse_53" class="st0" cx="37.4" cy="90.1" r="2.2"/>
    <circle id="Ellipse_54" class="st0" cx="55" cy="90.1" r="2.2"/>
    <circle id="Ellipse_55" class="st0" cx="90.1" cy="90.1" r="2.2"/>
    <circle id="Ellipse_56" class="st0" cx="107.7" cy="90.1" r="2.2"/>
    <circle id="Ellipse_57" class="st0" cx="125.3" cy="90.1" r="2.2"/>
    <circle id="Ellipse_58" class="st0" cx="142.9" cy="90.1" r="2.2"/>
    <circle id="Ellipse_59" class="st0" cx="160.5" cy="90.1" r="2.2"/>
    <circle id="Ellipse_60" class="st0" cx="178.1" cy="90.1" r="2.2"/>
    <circle id="Ellipse_61" class="st0" cx="195.7" cy="90.1" r="2.2"/>
    <path id="Path_177" class="st0" d="M211,90.1c0-1.2,1-2.2,2.2-2.2,1.2,0,2.2,1,2.2,2.2s-1,2.2-2.2,2.2h0c-1.2,0-2.2-1-2.2-2.2h0Z"/>
    <circle id="Ellipse_62" class="st0" cx="230.8" cy="90.1" r="2.2"/>
    <circle id="Ellipse_63" class="st0" cx="283.6" cy="90.1" r="2.2"/>
    <circle id="Ellipse_64" class="st0" cx="301.2" cy="90.1" r="2.2"/>
    <path id="Path_178" class="st0" d="M316.6,90.1c0-1.2,1-2.2,2.2-2.2,1.2,0,2.2,1,2.2,2.2s-1,2.2-2.2,2.2h0c-1.2,0-2.2-1-2.2-2.2h0Z"/>
    <circle id="Ellipse_65" class="st0" cx="336.3" cy="90.1" r="2.2"/>
    <circle id="Ellipse_66" class="st0" cx="389.1" cy="90.1" r="2.2"/>
    <circle id="Ellipse_67" class="st0" cx="529.8" cy="90.1" r="2.2"/>
    <circle id="Ellipse_68" class="st0" cx="565" cy="90.1" r="2.2"/>
    <path id="Path_179" class="st0" d="M580.4,90.1c0-1.2,1-2.2,2.2-2.2,1.2,0,2.2,1,2.2,2.2s-1,2.2-2.2,2.2h0c-1.2,0-2.2-1-2.2-2.2h0Z"/>
    <path id="Path_180" class="st0" d="M615.5,90.1c0-1.2,1-2.2,2.2-2.2,1.2,0,2.2,1,2.2,2.2s-1,2.2-2.2,2.2h0c-1.2,0-2.2-1-2.2-2.2h0Z"/>
    <path id="Path_181" class="st0" d="M633.1,90.1c0-1.2,1-2.2,2.2-2.2,1.2,0,2.2,1,2.2,2.2s-1,2.2-2.2,2.2h0c-1.2,0-2.2-1-2.2-2.2h0Z"/>
    <path id="Path_182" class="st0" d="M650.7,90.1c0-1.2,1-2.2,2.2-2.2,1.2,0,2.2,1,2.2,2.2s-1,2.2-2.2,2.2h0c-1.2,0-2.2-1-2.2-2.2h0Z"/>
    <path id="Path_183" class="st0" d="M668.3,90.1c0-1.2,1-2.2,2.2-2.2,1.2,0,2.2,1,2.2,2.2,0,1.2-1,2.2-2.2,2.2-1.2,0-2.2-1-2.2-2.2h0Z"/>
    <path id="Path_184" class="st0" d="M685.9,90.1c0-1.2,1-2.2,2.2-2.2,1.2,0,2.2,1,2.2,2.2s-1,2.2-2.2,2.2h0c-1.2,0-2.2-1-2.2-2.2h0Z"/>
    <path id="Path_185" class="st0" d="M703.5,90.1c0-1.2,1-2.2,2.2-2.2,1.2,0,2.2,1,2.2,2.2s-1,2.2-2.2,2.2h0c-1.2,0-2.2-1-2.2-2.2h0Z"/>
    <path id="Path_186" class="st0" d="M721.1,90.1c0-1.2,1-2.2,2.2-2.2,1.2,0,2.2,1,2.2,2.2s-1,2.2-2.2,2.2h0c-1.2,0-2.2-1-2.2-2.2h0Z"/>
    <path id="Path_187" class="st0" d="M738.6,90.1c0-1.2,1-2.2,2.2-2.2,1.2,0,2.2,1,2.2,2.2,0,1.2-1,2.2-2.2,2.2-1.2,0-2.2-1-2.2-2.2h0Z"/>
    <path id="Path_188" class="st0" d="M756.2,90.1c0-1.2,1-2.2,2.2-2.2,1.2,0,2.2,1,2.2,2.2s-1,2.2-2.2,2.2h0c-1.2,0-2.2-1-2.2-2.2h0Z"/>
    <path id="Path_189" class="st0" d="M773.8,90.1c0-1.2,1-2.2,2.2-2.2,1.2,0,2.2,1,2.2,2.2s-1,2.2-2.2,2.2h0c-1.2,0-2.2-1-2.2-2.2h0Z"/>
    <path id="Path_190" class="st0" d="M791.4,90.1c0-1.2,1-2.2,2.2-2.2,1.2,0,2.2,1,2.2,2.2s-1,2.2-2.2,2.2h0c-1.2,0-2.2-1-2.2-2.2h0Z"/>
    <path id="Path_191" class="st0" d="M809,90.1c0-1.2,1-2.2,2.2-2.2,1.2,0,2.2,1,2.2,2.2s-1,2.2-2.2,2.2h0c-1.2,0-2.2-1-2.2-2.2h0Z"/>
    <path id="Path_192" class="st0" d="M826.6,90.1c0-1.2,1-2.2,2.2-2.2,1.2,0,2.2,1,2.2,2.2s-1,2.2-2.2,2.2h0c-1.2,0-2.2-1-2.2-2.2h0Z"/>
    <path id="Path_193" class="st0" d="M844.2,90.1c0-1.2,1-2.2,2.2-2.2,1.2,0,2.2,1,2.2,2.2s-1,2.2-2.2,2.2h0c-1.2,0-2.2-1-2.2-2.2h0Z"/>
    <path id="Path_194" class="st0" d="M861.8,90.1c0-1.2,1-2.2,2.2-2.2,1.2,0,2.2,1,2.2,2.2s-1,2.2-2.2,2.2h0c-1.2,0-2.2-1-2.2-2.2h0Z"/>
    <path id="Path_195" class="st0" d="M879.3,90.1c0-1.2,1-2.2,2.2-2.2,1.2,0,2.2,1,2.2,2.2s-1,2.2-2.2,2.2h0c-1.2,0-2.2-1-2.2-2.2h0Z"/>
    <path id="Path_196" class="st0" d="M896.9,90.1c0-1.2,1-2.2,2.2-2.2,1.2,0,2.2,1,2.2,2.2,0,1.2-1,2.2-2.2,2.2-1.2,0-2.2-1-2.2-2.2h0Z"/>
    <path id="Path_197" class="st0" d="M914.5,90.1c0-1.2,1-2.2,2.2-2.2,1.2,0,2.2,1,2.2,2.2s-1,2.2-2.2,2.2h0c-1.2,0-2.2-1-2.2-2.2h0Z"/>
    <path id="Path_198" class="st0" d="M932.1,90.1c0-1.2,1-2.2,2.2-2.2,1.2,0,2.2,1,2.2,2.2s-1,2.2-2.2,2.2h0c-1.2,0-2.2-1-2.2-2.2h0Z"/>
    <path id="Path_199" class="st0" d="M949.7,90.1c0-1.2,1-2.2,2.2-2.2,1.2,0,2.2,1,2.2,2.2s-1,2.2-2.2,2.2h0c-1.2,0-2.2-1-2.2-2.2h0Z"/>
    <path id="Path_200" class="st0" d="M967.3,90.1c0-1.2,1-2.2,2.2-2.2,1.2,0,2.2,1,2.2,2.2,0,1.2-1,2.2-2.2,2.2-1.2,0-2.2-1-2.2-2.2h0Z"/>
    <path id="Path_201" class="st0" d="M1002.5,90.1c0-1.2,1-2.2,2.2-2.2,1.2,0,2.2,1,2.2,2.2s-1,2.2-2.2,2.2h0c-1.2,0-2.2-1-2.2-2.2h0Z"/>
    <path id="Path_202" class="st0" d="M1020,90.1c0-1.2,1-2.2,2.2-2.2,1.2,0,2.2,1,2.2,2.2s-1,2.2-2.2,2.2h0c-1.2,0-2.2-1-2.2-2.2h0Z"/>
    <path id="Path_203" class="st0" d="M1055.2,90.1c0-1.2,1-2.2,2.2-2.2,1.2,0,2.2,1,2.2,2.2s-1,2.2-2.2,2.2h0c-1.2,0-2.2-1-2.2-2.2h0Z"/>
    <circle id="Ellipse_69" class="st0" cx="2.2" cy="107.7" r="2.2"/>
    <circle id="Ellipse_70" class="st0" cx="19.8" cy="107.7" r="2.2"/>
    <circle id="Ellipse_71" class="st0" cx="125.3" cy="107.7" r="2.2"/>
    <circle id="Ellipse_72" class="st0" cx="142.9" cy="107.7" r="2.2"/>
    <circle id="Ellipse_73" class="st0" cx="160.5" cy="107.7" r="2.2"/>
    <circle id="Ellipse_74" class="st0" cx="178.1" cy="107.7" r="2.2"/>
    <circle id="Ellipse_75" class="st0" cx="195.7" cy="107.7" r="2.2"/>
    <path id="Path_204" class="st0" d="M211,107.7c0-1.2,1-2.2,2.2-2.2s2.2,1,2.2,2.2c0,1.2-1,2.2-2.2,2.2-1.2,0-2.2-1-2.2-2.2h0Z"/>
    <circle id="Ellipse_76" class="st0" cx="230.8" cy="107.7" r="2.2"/>
    <circle id="Ellipse_77" class="st0" cx="248.4" cy="107.7" r="2.2"/>
    <circle id="Ellipse_78" class="st0" cx="266" cy="107.7" r="2.2"/>
    <circle id="Ellipse_79" class="st0" cx="283.6" cy="107.7" r="2.2"/>
    <circle id="Ellipse_80" class="st0" cx="301.2" cy="107.7" r="2.2"/>
    <path id="Path_205" class="st0" d="M316.6,107.7c0-1.2,1-2.2,2.2-2.2s2.2,1,2.2,2.2c0,1.2-1,2.2-2.2,2.2-1.2,0-2.2-1-2.2-2.2h0Z"/>
    <circle id="Ellipse_81" class="st0" cx="336.3" cy="107.7" r="2.2"/>
    <circle id="Ellipse_82" class="st0" cx="353.9" cy="107.7" r="2.2"/>
    <path id="Path_206" class="st0" d="M510,107.7c0-1.2,1-2.2,2.2-2.2,1.2,0,2.2,1,2.2,2.2,0,1.2-1,2.2-2.2,2.2-1.2,0-2.2-1-2.2-2.2h0Z"/>
    <circle id="Ellipse_83" class="st0" cx="529.8" cy="107.7" r="2.2"/>
    <circle id="Ellipse_84" class="st0" cx="565" cy="107.7" r="2.2"/>
    <path id="Path_207" class="st0" d="M598,107.7c0-1.2,1-2.2,2.2-2.2,1.2,0,2.2,1,2.2,2.2,0,1.2-1,2.2-2.2,2.2-1.2,0-2.2-1-2.2-2.2h0Z"/>
    <path id="Path_208" class="st0" d="M615.5,107.7c0-1.2,1-2.2,2.2-2.2,1.2,0,2.2,1,2.2,2.2,0,1.2-1,2.2-2.2,2.2-1.2,0-2.2-1-2.2-2.2h0Z"/>
    <path id="Path_209" class="st0" d="M633.1,107.7c0-1.2,1-2.2,2.2-2.2,1.2,0,2.2,1,2.2,2.2,0,1.2-1,2.2-2.2,2.2-1.2,0-2.2-1-2.2-2.2h0Z"/>
    <path id="Path_210" class="st0" d="M650.7,107.7c0-1.2,1-2.2,2.2-2.2,1.2,0,2.2,1,2.2,2.2,0,1.2-1,2.2-2.2,2.2-1.2,0-2.2-1-2.2-2.2h0Z"/>
    <path id="Path_211" class="st0" d="M668.3,107.7c0-1.2,1-2.2,2.2-2.2,1.2,0,2.2,1,2.2,2.2,0,1.2-1,2.2-2.2,2.2-1.2,0-2.2-1-2.2-2.2h0Z"/>
    <path id="Path_212" class="st0" d="M685.9,107.7c0-1.2,1-2.2,2.2-2.2,1.2,0,2.2,1,2.2,2.2,0,1.2-1,2.2-2.2,2.2-1.2,0-2.2-1-2.2-2.2h0Z"/>
    <path id="Path_213" class="st0" d="M703.5,107.7c0-1.2,1-2.2,2.2-2.2,1.2,0,2.2,1,2.2,2.2,0,1.2-1,2.2-2.2,2.2-1.2,0-2.2-1-2.2-2.2h0Z"/>
    <path id="Path_214" class="st0" d="M721.1,107.7c0-1.2,1-2.2,2.2-2.2,1.2,0,2.2,1,2.2,2.2,0,1.2-1,2.2-2.2,2.2-1.2,0-2.2-1-2.2-2.2h0Z"/>
    <path id="Path_215" class="st0" d="M738.6,107.7c0-1.2,1-2.2,2.2-2.2,1.2,0,2.2,1,2.2,2.2,0,1.2-1,2.2-2.2,2.2-1.2,0-2.2-1-2.2-2.2h0Z"/>
    <path id="Path_216" class="st0" d="M756.2,107.7c0-1.2,1-2.2,2.2-2.2,1.2,0,2.2,1,2.2,2.2,0,1.2-1,2.2-2.2,2.2-1.2,0-2.2-1-2.2-2.2h0Z"/>
    <path id="Path_217" class="st0" d="M773.8,107.7c0-1.2,1-2.2,2.2-2.2,1.2,0,2.2,1,2.2,2.2,0,1.2-1,2.2-2.2,2.2-1.2,0-2.2-1-2.2-2.2h0Z"/>
    <path id="Path_218" class="st0" d="M791.4,107.7c0-1.2,1-2.2,2.2-2.2,1.2,0,2.2,1,2.2,2.2,0,1.2-1,2.2-2.2,2.2-1.2,0-2.2-1-2.2-2.2h0Z"/>
    <path id="Path_219" class="st0" d="M809,107.7c0-1.2,1-2.2,2.2-2.2,1.2,0,2.2,1,2.2,2.2,0,1.2-1,2.2-2.2,2.2-1.2,0-2.2-1-2.2-2.2h0Z"/>
    <path id="Path_220" class="st0" d="M826.6,107.7c0-1.2,1-2.2,2.2-2.2,1.2,0,2.2,1,2.2,2.2s-1,2.2-2.2,2.2h0c-1.2,0-2.2-1-2.2-2.2h0Z"/>
    <path id="Path_221" class="st0" d="M844.2,107.7c0-1.2,1-2.2,2.2-2.2,1.2,0,2.2,1,2.2,2.2,0,1.2-1,2.2-2.2,2.2h0c-1.2,0-2.2-1-2.2-2.2h0Z"/>
    <path id="Path_222" class="st0" d="M861.8,107.7c0-1.2,1-2.2,2.2-2.2,1.2,0,2.2,1,2.2,2.2,0,1.2-1,2.2-2.2,2.2h0c-1.2,0-2.2-1-2.2-2.2h0Z"/>
    <path id="Path_223" class="st0" d="M879.3,107.7c0-1.2,1-2.2,2.2-2.2,1.2,0,2.2,1,2.2,2.2,0,1.2-1,2.2-2.2,2.2h0c-1.2,0-2.2-1-2.2-2.2h0Z"/>
    <path id="Path_224" class="st0" d="M896.9,107.7c0-1.2,1-2.2,2.2-2.2,1.2,0,2.2,1,2.2,2.2s-1,2.2-2.2,2.2c-1.2,0-2.2-1-2.2-2.2h0Z"/>
    <path id="Path_225" class="st0" d="M914.5,107.7c0-1.2,1-2.2,2.2-2.2,1.2,0,2.2,1,2.2,2.2,0,1.2-1,2.2-2.2,2.2h0c-1.2,0-2.2-1-2.2-2.2h0Z"/>
    <path id="Path_226" class="st0" d="M932.1,107.7c0-1.2,1-2.2,2.2-2.2,1.2,0,2.2,1,2.2,2.2,0,1.2-1,2.2-2.2,2.2h0c-1.2,0-2.2-1-2.2-2.2h0Z"/>
    <path id="Path_227" class="st0" d="M949.7,107.7c0-1.2,1-2.2,2.2-2.2,1.2,0,2.2,1,2.2,2.2,0,1.2-1,2.2-2.2,2.2h0c-1.2,0-2.2-1-2.2-2.2h0Z"/>
    <path id="Path_228" class="st0" d="M967.3,107.7c0-1.2,1-2.2,2.2-2.2,1.2,0,2.2,1,2.2,2.2s-1,2.2-2.2,2.2c-1.2,0-2.2-1-2.2-2.2h0Z"/>
    <path id="Path_229" class="st0" d="M984.9,107.7c0-1.2,1-2.2,2.2-2.2,1.2,0,2.2,1,2.2,2.2,0,1.2-1,2.2-2.2,2.2h0c-1.2,0-2.2-1-2.2-2.2h0Z"/>
    <path id="Path_230" class="st0" d="M1037.6,107.7c0-1.2,1-2.2,2.2-2.2,1.2,0,2.2,1,2.2,2.2,0,1.2-1,2.2-2.2,2.2h0c-1.2,0-2.2-1-2.2-2.2h0Z"/>
    <path id="Path_231" class="st0" d="M1055.2,107.7c0-1.2,1-2.2,2.2-2.2,1.2,0,2.2,1,2.2,2.2,0,1.2-1,2.2-2.2,2.2h0c-1.2,0-2.2-1-2.2-2.2h0Z"/>
    <path id="Path_232" class="st0" d="M140.7,125.3c0-1.2,1-2.2,2.2-2.2s2.2,1,2.2,2.2-1,2.2-2.2,2.2h0c-1.2,0-2.2-1-2.2-2.2Z"/>
    <path id="Path_233" class="st0" d="M158.3,125.3c0-1.2,1-2.2,2.2-2.2s2.2,1,2.2,2.2-1,2.2-2.2,2.2h0c-1.2,0-2.2-1-2.2-2.2Z"/>
    <path id="Path_234" class="st0" d="M175.9,125.3c0-1.2,1-2.2,2.2-2.2s2.2,1,2.2,2.2-1,2.2-2.2,2.2-2.2-1-2.2-2.2h0Z"/>
    <path id="Path_235" class="st0" d="M193.5,125.3c0-1.2,1-2.2,2.2-2.2s2.2,1,2.2,2.2-1,2.2-2.2,2.2h0c-1.2,0-2.2-1-2.2-2.2Z"/>
    <path id="Path_236" class="st0" d="M211,125.3c0-1.2,1-2.2,2.2-2.2,1.2,0,2.2,1,2.2,2.2s-1,2.2-2.2,2.2h0c-1.2,0-2.2-1-2.2-2.2Z"/>
    <path id="Path_237" class="st0" d="M228.6,125.3c0-1.2,1-2.2,2.2-2.2,1.2,0,2.2,1,2.2,2.2s-1,2.2-2.2,2.2h0c-1.2,0-2.2-1-2.2-2.2Z"/>
    <path id="Path_238" class="st0" d="M263.8,125.3c0-1.2,1-2.2,2.2-2.2,1.2,0,2.2,1,2.2,2.2s-1,2.2-2.2,2.2h0c-1.2,0-2.2-1-2.2-2.2Z"/>
    <path id="Path_239" class="st0" d="M281.4,125.3c0-1.2,1-2.2,2.2-2.2,1.2,0,2.2,1,2.2,2.2s-1,2.2-2.2,2.2h0c-1.2,0-2.2-1-2.2-2.2Z"/>
    <path id="Path_240" class="st0" d="M299,125.3c0-1.2,1-2.2,2.2-2.2,1.2,0,2.2,1,2.2,2.2s-1,2.2-2.2,2.2h0c-1.2,0-2.2-1-2.2-2.2Z"/>
    <path id="Path_241" class="st0" d="M316.6,125.3c0-1.2,1-2.2,2.2-2.2,1.2,0,2.2,1,2.2,2.2s-1,2.2-2.2,2.2h0c-1.2,0-2.2-1-2.2-2.2Z"/>
    <path id="Path_242" class="st0" d="M334.2,125.3c0-1.2,1-2.2,2.2-2.2s2.2,1,2.2,2.2-1,2.2-2.2,2.2h0c-1.2,0-2.2-1-2.2-2.2Z"/>
    <path id="Path_243" class="st0" d="M351.7,125.3c0-1.2,1-2.2,2.2-2.2,1.2,0,2.2,1,2.2,2.2s-1,2.2-2.2,2.2h0c-1.2,0-2.2-1-2.2-2.2Z"/>
    <path id="Path_244" class="st0" d="M369.3,125.3c0-1.2,1-2.2,2.2-2.2,1.2,0,2.2,1,2.2,2.2s-1,2.2-2.2,2.2h0c-1.2,0-2.2-1-2.2-2.2Z"/>
    <path id="Path_245" class="st0" d="M386.9,125.3c0-1.2,1-2.2,2.2-2.2,1.2,0,2.2,1,2.2,2.2s-1,2.2-2.2,2.2h0c-1.2,0-2.2-1-2.2-2.2Z"/>
    <path id="Path_246" class="st0" d="M527.6,125.3c0-1.2,1-2.2,2.2-2.2,1.2,0,2.2,1,2.2,2.2s-1,2.2-2.2,2.2h0c-1.2,0-2.2-1-2.2-2.2Z"/>
    <path id="Path_247" class="st0" d="M545.2,125.3c0-1.2,1-2.2,2.2-2.2,1.2,0,2.2,1,2.2,2.2s-1,2.2-2.2,2.2h0c-1.2,0-2.2-1-2.2-2.2h0Z"/>
    <path id="Path_248" class="st0" d="M562.8,125.3c0-1.2,1-2.2,2.2-2.2,1.2,0,2.2,1,2.2,2.2s-1,2.2-2.2,2.2h0c-1.2,0-2.2-1-2.2-2.2Z"/>
    <path id="Path_249" class="st0" d="M580.4,125.3c0-1.2,1-2.2,2.2-2.2,1.2,0,2.2,1,2.2,2.2s-1,2.2-2.2,2.2h0c-1.2,0-2.2-1-2.2-2.2h0Z"/>
    <path id="Path_250" class="st0" d="M598,125.3c0-1.2,1-2.2,2.2-2.2s2.2,1,2.2,2.2-1,2.2-2.2,2.2c-1.2,0-2.2-1-2.2-2.2h0Z"/>
    <path id="Path_251" class="st0" d="M615.5,125.3c0-1.2,1-2.2,2.2-2.2,1.2,0,2.2,1,2.2,2.2s-1,2.2-2.2,2.2h0c-1.2,0-2.2-1-2.2-2.2Z"/>
    <path id="Path_252" class="st0" d="M633.1,125.3c0-1.2,1-2.2,2.2-2.2,1.2,0,2.2,1,2.2,2.2s-1,2.2-2.2,2.2h0c-1.2,0-2.2-1-2.2-2.2Z"/>
    <path id="Path_253" class="st0" d="M650.7,125.3c0-1.2,1-2.2,2.2-2.2,1.2,0,2.2,1,2.2,2.2s-1,2.2-2.2,2.2h0c-1.2,0-2.2-1-2.2-2.2h0Z"/>
    <path id="Path_254" class="st0" d="M668.3,125.3c0-1.2,1-2.2,2.2-2.2s2.2,1,2.2,2.2-1,2.2-2.2,2.2c-1.2,0-2.2-1-2.2-2.2h0Z"/>
    <path id="Path_255" class="st0" d="M685.9,125.3c0-1.2,1-2.2,2.2-2.2,1.2,0,2.2,1,2.2,2.2s-1,2.2-2.2,2.2h0c-1.2,0-2.2-1-2.2-2.2Z"/>
    <path id="Path_256" class="st0" d="M703.5,125.3c0-1.2,1-2.2,2.2-2.2,1.2,0,2.2,1,2.2,2.2s-1,2.2-2.2,2.2h0c-1.2,0-2.2-1-2.2-2.2Z"/>
    <path id="Path_257" class="st0" d="M721.1,125.3c0-1.2,1-2.2,2.2-2.2,1.2,0,2.2,1,2.2,2.2s-1,2.2-2.2,2.2h0c-1.2,0-2.2-1-2.2-2.2h0Z"/>
    <path id="Path_258" class="st0" d="M738.6,125.3c0-1.2,1-2.2,2.2-2.2s2.2,1,2.2,2.2-1,2.2-2.2,2.2c-1.2,0-2.2-1-2.2-2.2h0Z"/>
    <path id="Path_259" class="st0" d="M756.2,125.3c0-1.2,1-2.2,2.2-2.2,1.2,0,2.2,1,2.2,2.2s-1,2.2-2.2,2.2h0c-1.2,0-2.2-1-2.2-2.2Z"/>
    <path id="Path_260" class="st0" d="M773.8,125.3c0-1.2,1-2.2,2.2-2.2,1.2,0,2.2,1,2.2,2.2s-1,2.2-2.2,2.2h0c-1.2,0-2.2-1-2.2-2.2Z"/>
    <path id="Path_261" class="st0" d="M791.4,125.3c0-1.2,1-2.2,2.2-2.2,1.2,0,2.2,1,2.2,2.2s-1,2.2-2.2,2.2h0c-1.2,0-2.2-1-2.2-2.2h0Z"/>
    <path id="Path_262" class="st0" d="M809,125.3c0-1.2,1-2.2,2.2-2.2,1.2,0,2.2,1,2.2,2.2s-1,2.2-2.2,2.2h0c-1.2,0-2.2-1-2.2-2.2h0Z"/>
    <path id="Path_263" class="st0" d="M826.6,125.3c0-1.2,1-2.2,2.2-2.2,1.2,0,2.2,1,2.2,2.2s-1,2.2-2.2,2.2h0c-1.2,0-2.2-1-2.2-2.2Z"/>
    <path id="Path_264" class="st0" d="M844.2,125.3c0-1.2,1-2.2,2.2-2.2s2.2,1,2.2,2.2c0,1.2-1,2.2-2.2,2.2h0c-1.2,0-2.2-1-2.2-2.2Z"/>
    <path id="Path_265" class="st0" d="M861.8,125.3c0-1.2,1-2.2,2.2-2.2s2.2,1,2.2,2.2c0,1.2-1,2.2-2.2,2.2h0c-1.2,0-2.2-1-2.2-2.2h0Z"/>
    <path id="Path_266" class="st0" d="M879.3,125.3c0-1.2,1-2.2,2.2-2.2s2.2,1,2.2,2.2c0,1.2-1,2.2-2.2,2.2h0c-1.2,0-2.2-1-2.2-2.2h0Z"/>
    <path id="Path_267" class="st0" d="M896.9,125.3c0-1.2,1-2.2,2.2-2.2s2.2,1,2.2,2.2-1,2.2-2.2,2.2-2.2-1-2.2-2.2h0Z"/>
    <path id="Path_268" class="st0" d="M914.5,125.3c0-1.2,1-2.2,2.2-2.2s2.2,1,2.2,2.2c0,1.2-1,2.2-2.2,2.2h0c-1.2,0-2.2-1-2.2-2.2Z"/>
    <path id="Path_269" class="st0" d="M932.1,125.3c0-1.2,1-2.2,2.2-2.2s2.2,1,2.2,2.2c0,1.2-1,2.2-2.2,2.2h0c-1.2,0-2.2-1-2.2-2.2Z"/>
    <path id="Path_270" class="st0" d="M949.7,125.3c0-1.2,1-2.2,2.2-2.2s2.2,1,2.2,2.2c0,1.2-1,2.2-2.2,2.2h0c-1.2,0-2.2-1-2.2-2.2h0Z"/>
    <path id="Path_271" class="st0" d="M967.3,125.3c0-1.2,1-2.2,2.2-2.2s2.2,1,2.2,2.2-1,2.2-2.2,2.2-2.2-1-2.2-2.2h0Z"/>
    <path id="Path_272" class="st0" d="M984.9,125.3c0-1.2,1-2.2,2.2-2.2s2.2,1,2.2,2.2c0,1.2-1,2.2-2.2,2.2h0c-1.2,0-2.2-1-2.2-2.2Z"/>
    <path id="Path_273" class="st0" d="M1037.6,125.3c0-1.2,1-2.2,2.2-2.2s2.2,1,2.2,2.2c0,1.2-1,2.2-2.2,2.2h0c-1.2,0-2.2-1-2.2-2.2h0Z"/>
    <circle id="Ellipse_85" class="st0" cx="142.9" cy="142.9" r="2.2"/>
    <circle id="Ellipse_86" class="st0" cx="160.5" cy="142.9" r="2.2"/>
    <circle id="Ellipse_87" class="st0" cx="178.1" cy="142.9" r="2.2"/>
    <circle id="Ellipse_88" class="st0" cx="195.7" cy="142.9" r="2.2"/>
    <path id="Path_274" class="st0" d="M211,142.9c0-1.2,1-2.2,2.2-2.2s2.2,1,2.2,2.2-1,2.2-2.2,2.2h0c-1.2,0-2.2-1-2.2-2.2Z"/>
    <circle id="Ellipse_89" class="st0" cx="230.8" cy="142.9" r="2.2"/>
    <circle id="Ellipse_90" class="st0" cx="248.4" cy="142.9" r="2.2"/>
    <circle id="Ellipse_91" class="st0" cx="283.6" cy="142.9" r="2.2"/>
    <circle id="Ellipse_92" class="st0" cx="301.2" cy="142.9" r="2.2"/>
    <path id="Path_275" class="st0" d="M316.6,142.9c0-1.2,1-2.2,2.2-2.2s2.2,1,2.2,2.2-1,2.2-2.2,2.2h0c-1.2,0-2.2-1-2.2-2.2h0Z"/>
    <circle id="Ellipse_93" class="st0" cx="336.3" cy="142.9" r="2.2"/>
    <circle id="Ellipse_94" class="st0" cx="353.9" cy="142.9" r="2.2"/>
    <circle id="Ellipse_95" class="st0" cx="371.5" cy="142.9" r="2.2"/>
    <circle id="Ellipse_96" class="st0" cx="389.1" cy="142.9" r="2.2"/>
    <circle id="Ellipse_97" class="st0" cx="529.8" cy="142.9" r="2.2"/>
    <circle id="Ellipse_98" class="st0" cx="547.4" cy="142.9" r="2.2"/>
    <circle id="Ellipse_99" class="st0" cx="565" cy="142.9" r="2.2"/>
    <path id="Path_276" class="st0" d="M580.4,142.9c0-1.2,1-2.2,2.2-2.2s2.2,1,2.2,2.2-1,2.2-2.2,2.2h0c-1.2,0-2.2-1-2.2-2.2h0Z"/>
    <path id="Path_277" class="st0" d="M598,142.9c0-1.2,1-2.2,2.2-2.2,1.2,0,2.2,1,2.2,2.2,0,1.2-1,2.2-2.2,2.2-1.2,0-2.2-1-2.2-2.2h0Z"/>
    <path id="Path_278" class="st0" d="M615.5,142.9c0-1.2,1-2.2,2.2-2.2s2.2,1,2.2,2.2-1,2.2-2.2,2.2h0c-1.2,0-2.2-1-2.2-2.2Z"/>
    <path id="Path_279" class="st0" d="M668.3,142.9c0-1.2,1-2.2,2.2-2.2,1.2,0,2.2,1,2.2,2.2,0,1.2-1,2.2-2.2,2.2-1.2,0-2.2-1-2.2-2.2h0Z"/>
    <path id="Path_280" class="st0" d="M685.9,142.9c0-1.2,1-2.2,2.2-2.2s2.2,1,2.2,2.2-1,2.2-2.2,2.2h0c-1.2,0-2.2-1-2.2-2.2Z"/>
    <path id="Path_281" class="st0" d="M703.5,142.9c0-1.2,1-2.2,2.2-2.2s2.2,1,2.2,2.2-1,2.2-2.2,2.2h0c-1.2,0-2.2-1-2.2-2.2Z"/>
    <path id="Path_282" class="st0" d="M721.1,142.9c0-1.2,1-2.2,2.2-2.2s2.2,1,2.2,2.2-1,2.2-2.2,2.2h0c-1.2,0-2.2-1-2.2-2.2h0Z"/>
    <path id="Path_283" class="st0" d="M738.6,142.9c0-1.2,1-2.2,2.2-2.2,1.2,0,2.2,1,2.2,2.2,0,1.2-1,2.2-2.2,2.2-1.2,0-2.2-1-2.2-2.2h0Z"/>
    <path id="Path_284" class="st0" d="M756.2,142.9c0-1.2,1-2.2,2.2-2.2s2.2,1,2.2,2.2-1,2.2-2.2,2.2h0c-1.2,0-2.2-1-2.2-2.2Z"/>
    <path id="Path_285" class="st0" d="M773.8,142.9c0-1.2,1-2.2,2.2-2.2s2.2,1,2.2,2.2-1,2.2-2.2,2.2h0c-1.2,0-2.2-1-2.2-2.2Z"/>
    <path id="Path_286" class="st0" d="M791.4,142.9c0-1.2,1-2.2,2.2-2.2s2.2,1,2.2,2.2-1,2.2-2.2,2.2h0c-1.2,0-2.2-1-2.2-2.2h0Z"/>
    <path id="Path_287" class="st0" d="M809,142.9c0-1.2,1-2.2,2.2-2.2s2.2,1,2.2,2.2-1,2.2-2.2,2.2h0c-1.2,0-2.2-1-2.2-2.2h0Z"/>
    <path id="Path_288" class="st0" d="M826.6,142.9c0-1.2,1-2.2,2.2-2.2s2.2,1,2.2,2.2-1,2.2-2.2,2.2h0c-1.2,0-2.2-1-2.2-2.2Z"/>
    <path id="Path_289" class="st0" d="M844.2,142.9c0-1.2,1-2.2,2.2-2.2s2.2,1,2.2,2.2-1,2.2-2.2,2.2h0c-1.2,0-2.2-1-2.2-2.2Z"/>
    <path id="Path_290" class="st0" d="M861.8,142.9c0-1.2,1-2.2,2.2-2.2s2.2,1,2.2,2.2-1,2.2-2.2,2.2h0c-1.2,0-2.2-1-2.2-2.2h0Z"/>
    <path id="Path_291" class="st0" d="M879.3,142.9c0-1.2,1-2.2,2.2-2.2s2.2,1,2.2,2.2-1,2.2-2.2,2.2h0c-1.2,0-2.2-1-2.2-2.2h0Z"/>
    <path id="Path_292" class="st0" d="M896.9,142.9c0-1.2,1-2.2,2.2-2.2s2.2,1,2.2,2.2c0,1.2-1,2.2-2.2,2.2-1.2,0-2.2-1-2.2-2.2h0Z"/>
    <path id="Path_293" class="st0" d="M914.5,142.9c0-1.2,1-2.2,2.2-2.2s2.2,1,2.2,2.2-1,2.2-2.2,2.2h0c-1.2,0-2.2-1-2.2-2.2Z"/>
    <path id="Path_294" class="st0" d="M932.1,142.9c0-1.2,1-2.2,2.2-2.2s2.2,1,2.2,2.2-1,2.2-2.2,2.2h0c-1.2,0-2.2-1-2.2-2.2Z"/>
    <path id="Path_295" class="st0" d="M949.7,142.9c0-1.2,1-2.2,2.2-2.2s2.2,1,2.2,2.2-1,2.2-2.2,2.2h0c-1.2,0-2.2-1-2.2-2.2h0Z"/>
    <path id="Path_296" class="st0" d="M967.3,142.9c0-1.2,1-2.2,2.2-2.2s2.2,1,2.2,2.2c0,1.2-1,2.2-2.2,2.2-1.2,0-2.2-1-2.2-2.2h0Z"/>
    <path id="Path_297" class="st0" d="M984.9,142.9c0-1.2,1-2.2,2.2-2.2s2.2,1,2.2,2.2-1,2.2-2.2,2.2h0c-1.2,0-2.2-1-2.2-2.2Z"/>
    <circle id="Ellipse_100" class="st0" cx="142.9" cy="160.5" r="2.2"/>
    <circle id="Ellipse_101" class="st0" cx="160.5" cy="160.5" r="2.2"/>
    <circle id="Ellipse_102" class="st0" cx="178.1" cy="160.5" r="2.2"/>
    <circle id="Ellipse_103" class="st0" cx="195.7" cy="160.5" r="2.2"/>
    <path id="Path_298" class="st0" d="M211,160.5c0-1.2,1-2.2,2.2-2.2s2.2,1,2.2,2.2-1,2.2-2.2,2.2h0c-1.2,0-2.2-1-2.2-2.2Z"/>
    <circle id="Ellipse_104" class="st0" cx="230.8" cy="160.5" r="2.2"/>
    <circle id="Ellipse_105" class="st0" cx="248.4" cy="160.5" r="2.2"/>
    <circle id="Ellipse_106" class="st0" cx="266" cy="160.5" r="2.2"/>
    <circle id="Ellipse_107" class="st0" cx="283.6" cy="160.5" r="2.2"/>
    <circle id="Ellipse_108" class="st0" cx="301.2" cy="160.5" r="2.2"/>
    <circle id="Ellipse_109" class="st0" cx="336.3" cy="160.5" r="2.2"/>
    <circle id="Ellipse_110" class="st0" cx="353.9" cy="160.5" r="2.2"/>
    <circle id="Ellipse_111" class="st0" cx="371.5" cy="160.5" r="2.2"/>
    <circle id="Ellipse_112" class="st0" cx="389.1" cy="160.5" r="2.2"/>
    <path id="Path_299" class="st0" d="M510,160.5c0-1.2,1-2.2,2.2-2.2s2.2,1,2.2,2.2-1,2.2-2.2,2.2h0c-1.2,0-2.2-1-2.2-2.2Z"/>
    <circle id="Ellipse_113" class="st0" cx="529.8" cy="160.5" r="2.2"/>
    <path id="Path_300" class="st0" d="M580.4,160.5c0-1.2,1-2.2,2.2-2.2s2.2,1,2.2,2.2-1,2.2-2.2,2.2h0c-1.2,0-2.2-1-2.2-2.2h0Z"/>
    <path id="Path_301" class="st0" d="M615.5,160.5c0-1.2,1-2.2,2.2-2.2s2.2,1,2.2,2.2-1,2.2-2.2,2.2h0c-1.2,0-2.2-1-2.2-2.2Z"/>
    <path id="Path_302" class="st0" d="M633.1,160.5c0-1.2,1-2.2,2.2-2.2s2.2,1,2.2,2.2-1,2.2-2.2,2.2h0c-1.2,0-2.2-1-2.2-2.2Z"/>
    <path id="Path_303" class="st0" d="M650.7,160.5c0-1.2,1-2.2,2.2-2.2s2.2,1,2.2,2.2-1,2.2-2.2,2.2h0c-1.2,0-2.2-1-2.2-2.2h0Z"/>
    <path id="Path_304" class="st0" d="M668.3,160.5c0-1.2,1-2.2,2.2-2.2,1.2,0,2.2,1,2.2,2.2,0,1.2-1,2.2-2.2,2.2-1.2,0-2.2-1-2.2-2.2h0Z"/>
    <path id="Path_305" class="st0" d="M685.9,160.5c0-1.2,1-2.2,2.2-2.2s2.2,1,2.2,2.2-1,2.2-2.2,2.2h0c-1.2,0-2.2-1-2.2-2.2Z"/>
    <path id="Path_306" class="st0" d="M721.1,160.5c0-1.2,1-2.2,2.2-2.2s2.2,1,2.2,2.2-1,2.2-2.2,2.2h0c-1.2,0-2.2-1-2.2-2.2h0Z"/>
    <path id="Path_307" class="st0" d="M738.6,160.5c0-1.2,1-2.2,2.2-2.2,1.2,0,2.2,1,2.2,2.2,0,1.2-1,2.2-2.2,2.2-1.2,0-2.2-1-2.2-2.2h0Z"/>
    <path id="Path_308" class="st0" d="M756.2,160.5c0-1.2,1-2.2,2.2-2.2s2.2,1,2.2,2.2-1,2.2-2.2,2.2h0c-1.2,0-2.2-1-2.2-2.2Z"/>
    <path id="Path_309" class="st0" d="M773.8,160.5c0-1.2,1-2.2,2.2-2.2s2.2,1,2.2,2.2-1,2.2-2.2,2.2h0c-1.2,0-2.2-1-2.2-2.2Z"/>
    <path id="Path_310" class="st0" d="M791.4,160.5c0-1.2,1-2.2,2.2-2.2s2.2,1,2.2,2.2-1,2.2-2.2,2.2h0c-1.2,0-2.2-1-2.2-2.2h0Z"/>
    <path id="Path_311" class="st0" d="M809,160.5c0-1.2,1-2.2,2.2-2.2s2.2,1,2.2,2.2-1,2.2-2.2,2.2h0c-1.2,0-2.2-1-2.2-2.2h0Z"/>
    <path id="Path_312" class="st0" d="M826.6,160.5c0-1.2,1-2.2,2.2-2.2s2.2,1,2.2,2.2-1,2.2-2.2,2.2h0c-1.2,0-2.2-1-2.2-2.2Z"/>
    <path id="Path_313" class="st0" d="M844.2,160.5c0-1.2,1-2.2,2.2-2.2s2.2,1,2.2,2.2-1,2.2-2.2,2.2h0c-1.2,0-2.2-1-2.2-2.2Z"/>
    <path id="Path_314" class="st0" d="M861.8,160.5c0-1.2,1-2.2,2.2-2.2s2.2,1,2.2,2.2-1,2.2-2.2,2.2h0c-1.2,0-2.2-1-2.2-2.2h0Z"/>
    <path id="Path_315" class="st0" d="M879.3,160.5c0-1.2,1-2.2,2.2-2.2s2.2,1,2.2,2.2-1,2.2-2.2,2.2h0c-1.2,0-2.2-1-2.2-2.2h0Z"/>
    <path id="Path_316" class="st0" d="M896.9,160.5c0-1.2,1-2.2,2.2-2.2s2.2,1,2.2,2.2c0,1.2-1,2.2-2.2,2.2-1.2,0-2.2-1-2.2-2.2h0Z"/>
    <path id="Path_317" class="st0" d="M914.5,160.5c0-1.2,1-2.2,2.2-2.2s2.2,1,2.2,2.2-1,2.2-2.2,2.2h0c-1.2,0-2.2-1-2.2-2.2Z"/>
    <path id="Path_318" class="st0" d="M932.1,160.5c0-1.2,1-2.2,2.2-2.2s2.2,1,2.2,2.2-1,2.2-2.2,2.2h0c-1.2,0-2.2-1-2.2-2.2Z"/>
    <path id="Path_319" class="st0" d="M949.7,160.5c0-1.2,1-2.2,2.2-2.2s2.2,1,2.2,2.2-1,2.2-2.2,2.2h0c-1.2,0-2.2-1-2.2-2.2h0Z"/>
    <path id="Path_320" class="st0" d="M984.9,160.5c0-1.2,1-2.2,2.2-2.2s2.2,1,2.2,2.2-1,2.2-2.2,2.2h0c-1.2,0-2.2-1-2.2-2.2Z"/>
    <path id="Path_321" class="st0" d="M140.7,178.1c0-1.2,1-2.2,2.2-2.2s2.2,1,2.2,2.2-1,2.2-2.2,2.2h0c-1.2,0-2.2-1-2.2-2.2h0Z"/>
    <path id="Path_322" class="st0" d="M158.3,178.1c0-1.2,1-2.2,2.2-2.2s2.2,1,2.2,2.2-1,2.2-2.2,2.2h0c-1.2,0-2.2-1-2.2-2.2h0Z"/>
    <path id="Path_323" class="st0" d="M175.9,178.1c0-1.2,1-2.2,2.2-2.2s2.2,1,2.2,2.2-1,2.2-2.2,2.2c-1.2,0-2.2-1-2.2-2.2h0Z"/>
    <path id="Path_324" class="st0" d="M193.5,178.1c0-1.2,1-2.2,2.2-2.2s2.2,1,2.2,2.2-1,2.2-2.2,2.2h0c-1.2,0-2.2-1-2.2-2.2h0Z"/>
    <path id="Path_325" class="st0" d="M211,178.1c0-1.2,1-2.2,2.2-2.2,1.2,0,2.2,1,2.2,2.2s-1,2.2-2.2,2.2h0c-1.2,0-2.2-1-2.2-2.2h0Z"/>
    <path id="Path_326" class="st0" d="M228.6,178.1c0-1.2,1-2.2,2.2-2.2,1.2,0,2.2,1,2.2,2.2s-1,2.2-2.2,2.2h0c-1.2,0-2.2-1-2.2-2.2Z"/>
    <path id="Path_327" class="st0" d="M246.2,178.1c0-1.2,1-2.2,2.2-2.2,1.2,0,2.2,1,2.2,2.2s-1,2.2-2.2,2.2h0c-1.2,0-2.2-1-2.2-2.2h0Z"/>
    <path id="Path_328" class="st0" d="M263.8,178.1c0-1.2,1-2.2,2.2-2.2,1.2,0,2.2,1,2.2,2.2s-1,2.2-2.2,2.2h0c-1.2,0-2.2-1-2.2-2.2h0Z"/>
    <path id="Path_329" class="st0" d="M281.4,178.1c0-1.2,1-2.2,2.2-2.2,1.2,0,2.2,1,2.2,2.2s-1,2.2-2.2,2.2h0c-1.2,0-2.2-1-2.2-2.2h0Z"/>
    <path id="Path_330" class="st0" d="M334.2,178.1c0-1.2,1-2.2,2.2-2.2s2.2,1,2.2,2.2-1,2.2-2.2,2.2h0c-1.2,0-2.2-1-2.2-2.2h0Z"/>
    <path id="Path_331" class="st0" d="M351.7,178.1c0-1.2,1-2.2,2.2-2.2,1.2,0,2.2,1,2.2,2.2s-1,2.2-2.2,2.2h0c-1.2,0-2.2-1-2.2-2.2h0Z"/>
    <path id="Path_332" class="st0" d="M369.3,178.1c0-1.2,1-2.2,2.2-2.2,1.2,0,2.2,1,2.2,2.2s-1,2.2-2.2,2.2h0c-1.2,0-2.2-1-2.2-2.2Z"/>
    <path id="Path_333" class="st0" d="M386.9,178.1c0-1.2,1-2.2,2.2-2.2,1.2,0,2.2,1,2.2,2.2s-1,2.2-2.2,2.2h0c-1.2,0-2.2-1-2.2-2.2h0Z"/>
    <path id="Path_334" class="st0" d="M510,178.1c0-1.2,1-2.2,2.2-2.2,1.2,0,2.2,1,2.2,2.2s-1,2.2-2.2,2.2h0c-1.2,0-2.2-1-2.2-2.2h0Z"/>
    <path id="Path_335" class="st0" d="M527.6,178.1c0-1.2,1-2.2,2.2-2.2,1.2,0,2.2,1,2.2,2.2s-1,2.2-2.2,2.2h0c-1.2,0-2.2-1-2.2-2.2h0Z"/>
    <path id="Path_336" class="st0" d="M545.2,178.1c0-1.2,1-2.2,2.2-2.2,1.2,0,2.2,1,2.2,2.2s-1,2.2-2.2,2.2h0c-1.2,0-2.2-1-2.2-2.2h0Z"/>
    <path id="Path_337" class="st0" d="M562.8,178.1c0-1.2,1-2.2,2.2-2.2,1.2,0,2.2,1,2.2,2.2s-1,2.2-2.2,2.2h0c-1.2,0-2.2-1-2.2-2.2h0Z"/>
    <path id="Path_338" class="st0" d="M650.7,178.1c0-1.2,1-2.2,2.2-2.2,1.2,0,2.2,1,2.2,2.2s-1,2.2-2.2,2.2h0c-1.2,0-2.2-1-2.2-2.2h0Z"/>
    <path id="Path_339" class="st0" d="M668.3,178.1c0-1.2,1-2.2,2.2-2.2s2.2,1,2.2,2.2-1,2.2-2.2,2.2c-1.2,0-2.2-1-2.2-2.2h0Z"/>
    <path id="Path_340" class="st0" d="M685.9,178.1c0-1.2,1-2.2,2.2-2.2,1.2,0,2.2,1,2.2,2.2s-1,2.2-2.2,2.2h0c-1.2,0-2.2-1-2.2-2.2h0Z"/>
    <path id="Path_341" class="st0" d="M703.5,178.1c0-1.2,1-2.2,2.2-2.2,1.2,0,2.2,1,2.2,2.2s-1,2.2-2.2,2.2h0c-1.2,0-2.2-1-2.2-2.2h0Z"/>
    <path id="Path_342" class="st0" d="M721.1,178.1c0-1.2,1-2.2,2.2-2.2,1.2,0,2.2,1,2.2,2.2s-1,2.2-2.2,2.2h0c-1.2,0-2.2-1-2.2-2.2h0Z"/>
    <path id="Path_343" class="st0" d="M738.6,178.1c0-1.2,1-2.2,2.2-2.2s2.2,1,2.2,2.2-1,2.2-2.2,2.2c-1.2,0-2.2-1-2.2-2.2h0Z"/>
    <path id="Path_344" class="st0" d="M756.2,178.1c0-1.2,1-2.2,2.2-2.2,1.2,0,2.2,1,2.2,2.2s-1,2.2-2.2,2.2h0c-1.2,0-2.2-1-2.2-2.2h0Z"/>
    <path id="Path_345" class="st0" d="M773.8,178.1c0-1.2,1-2.2,2.2-2.2,1.2,0,2.2,1,2.2,2.2s-1,2.2-2.2,2.2h0c-1.2,0-2.2-1-2.2-2.2h0Z"/>
    <path id="Path_346" class="st0" d="M791.4,178.1c0-1.2,1-2.2,2.2-2.2,1.2,0,2.2,1,2.2,2.2s-1,2.2-2.2,2.2h0c-1.2,0-2.2-1-2.2-2.2h0Z"/>
    <path id="Path_347" class="st0" d="M809,178.1c0-1.2,1-2.2,2.2-2.2,1.2,0,2.2,1,2.2,2.2s-1,2.2-2.2,2.2h0c-1.2,0-2.2-1-2.2-2.2h0Z"/>
    <path id="Path_348" class="st0" d="M826.6,178.1c0-1.2,1-2.2,2.2-2.2,1.2,0,2.2,1,2.2,2.2s-1,2.2-2.2,2.2h0c-1.2,0-2.2-1-2.2-2.2h0Z"/>
    <path id="Path_349" class="st0" d="M844.2,178.1c0-1.2,1-2.2,2.2-2.2s2.2,1,2.2,2.2c0,1.2-1,2.2-2.2,2.2h0c-1.2,0-2.2-1-2.2-2.2h0Z"/>
    <path id="Path_350" class="st0" d="M861.8,178.1c0-1.2,1-2.2,2.2-2.2s2.2,1,2.2,2.2c0,1.2-1,2.2-2.2,2.2h0c-1.2,0-2.2-1-2.2-2.2h0Z"/>
    <path id="Path_351" class="st0" d="M879.3,178.1c0-1.2,1-2.2,2.2-2.2s2.2,1,2.2,2.2c0,1.2-1,2.2-2.2,2.2h0c-1.2,0-2.2-1-2.2-2.2h0Z"/>
    <path id="Path_352" class="st0" d="M896.9,178.1c0-1.2,1-2.2,2.2-2.2s2.2,1,2.2,2.2-1,2.2-2.2,2.2c-1.2,0-2.2-1-2.2-2.2h0Z"/>
    <path id="Path_353" class="st0" d="M914.5,178.1c0-1.2,1-2.2,2.2-2.2s2.2,1,2.2,2.2c0,1.2-1,2.2-2.2,2.2h0c-1.2,0-2.2-1-2.2-2.2h0Z"/>
    <path id="Path_354" class="st0" d="M949.7,178.1c0-1.2,1-2.2,2.2-2.2s2.2,1,2.2,2.2c0,1.2-1,2.2-2.2,2.2h0c-1.2,0-2.2-1-2.2-2.2h0Z"/>
    <path id="Path_355" class="st0" d="M967.3,178.1c0-1.2,1-2.2,2.2-2.2s2.2,1,2.2,2.2-1,2.2-2.2,2.2c-1.2,0-2.2-1-2.2-2.2h0Z"/>
    <path id="Path_356" class="st0" d="M984.9,178.1c0-1.2,1-2.2,2.2-2.2s2.2,1,2.2,2.2c0,1.2-1,2.2-2.2,2.2h0c-1.2,0-2.2-1-2.2-2.2h0Z"/>
    <circle id="Ellipse_114" class="st0" cx="160.5" cy="195.7" r="2.2"/>
    <circle id="Ellipse_115" class="st0" cx="178.1" cy="195.7" r="2.2"/>
    <circle id="Ellipse_116" class="st0" cx="195.7" cy="195.7" r="2.2"/>
    <path id="Path_357" class="st0" d="M211,195.7c0-1.2,1-2.2,2.2-2.2,1.2,0,2.2,1,2.2,2.2s-1,2.2-2.2,2.2h0c-1.2,0-2.2-1-2.2-2.2Z"/>
    <circle id="Ellipse_117" class="st0" cx="230.8" cy="195.7" r="2.2"/>
    <circle id="Ellipse_118" class="st0" cx="248.4" cy="195.7" r="2.2"/>
    <circle id="Ellipse_119" class="st0" cx="266" cy="195.7" r="2.2"/>
    <circle id="Ellipse_120" class="st0" cx="283.6" cy="195.7" r="2.2"/>
    <path id="Path_358" class="st0" d="M510,195.7c0-1.2,1-2.2,2.2-2.2,1.2,0,2.2,1,2.2,2.2s-1,2.2-2.2,2.2h0c-1.2,0-2.2-1-2.2-2.2Z"/>
    <circle id="Ellipse_121" class="st0" cx="529.8" cy="195.7" r="2.2"/>
    <circle id="Ellipse_122" class="st0" cx="547.4" cy="195.7" r="2.2"/>
    <circle id="Ellipse_123" class="st0" cx="565" cy="195.7" r="2.2"/>
    <path id="Path_359" class="st0" d="M580.4,195.7c0-1.2,1-2.2,2.2-2.2,1.2,0,2.2,1,2.2,2.2s-1,2.2-2.2,2.2h0c-1.2,0-2.2-1-2.2-2.2h0Z"/>
    <path id="Path_360" class="st0" d="M598,195.7c0-1.2,1-2.2,2.2-2.2s2.2,1,2.2,2.2-1,2.2-2.2,2.2c-1.2,0-2.2-1-2.2-2.2h0Z"/>
    <path id="Path_361" class="st0" d="M615.5,195.7c0-1.2,1-2.2,2.2-2.2,1.2,0,2.2,1,2.2,2.2s-1,2.2-2.2,2.2h0c-1.2,0-2.2-1-2.2-2.2Z"/>
    <path id="Path_362" class="st0" d="M633.1,195.7c0-1.2,1-2.2,2.2-2.2,1.2,0,2.2,1,2.2,2.2s-1,2.2-2.2,2.2h0c-1.2,0-2.2-1-2.2-2.2Z"/>
    <path id="Path_363" class="st0" d="M650.7,195.7c0-1.2,1-2.2,2.2-2.2,1.2,0,2.2,1,2.2,2.2s-1,2.2-2.2,2.2h0c-1.2,0-2.2-1-2.2-2.2h0Z"/>
    <path id="Path_364" class="st0" d="M668.3,195.7c0-1.2,1-2.2,2.2-2.2s2.2,1,2.2,2.2-1,2.2-2.2,2.2c-1.2,0-2.2-1-2.2-2.2h0Z"/>
    <path id="Path_365" class="st0" d="M685.9,195.7c0-1.2,1-2.2,2.2-2.2,1.2,0,2.2,1,2.2,2.2s-1,2.2-2.2,2.2h0c-1.2,0-2.2-1-2.2-2.2Z"/>
    <path id="Path_366" class="st0" d="M703.5,195.7c0-1.2,1-2.2,2.2-2.2,1.2,0,2.2,1,2.2,2.2s-1,2.2-2.2,2.2h0c-1.2,0-2.2-1-2.2-2.2Z"/>
    <path id="Path_367" class="st0" d="M721.1,195.7c0-1.2,1-2.2,2.2-2.2,1.2,0,2.2,1,2.2,2.2s-1,2.2-2.2,2.2h0c-1.2,0-2.2-1-2.2-2.2h0Z"/>
    <path id="Path_368" class="st0" d="M738.6,195.7c0-1.2,1-2.2,2.2-2.2s2.2,1,2.2,2.2-1,2.2-2.2,2.2c-1.2,0-2.2-1-2.2-2.2h0Z"/>
    <path id="Path_369" class="st0" d="M756.2,195.7c0-1.2,1-2.2,2.2-2.2,1.2,0,2.2,1,2.2,2.2s-1,2.2-2.2,2.2h0c-1.2,0-2.2-1-2.2-2.2Z"/>
    <path id="Path_370" class="st0" d="M773.8,195.7c0-1.2,1-2.2,2.2-2.2,1.2,0,2.2,1,2.2,2.2s-1,2.2-2.2,2.2h0c-1.2,0-2.2-1-2.2-2.2Z"/>
    <path id="Path_371" class="st0" d="M791.4,195.7c0-1.2,1-2.2,2.2-2.2,1.2,0,2.2,1,2.2,2.2s-1,2.2-2.2,2.2h0c-1.2,0-2.2-1-2.2-2.2h0Z"/>
    <path id="Path_372" class="st0" d="M809,195.7c0-1.2,1-2.2,2.2-2.2,1.2,0,2.2,1,2.2,2.2s-1,2.2-2.2,2.2h0c-1.2,0-2.2-1-2.2-2.2h0Z"/>
    <path id="Path_373" class="st0" d="M826.6,195.7c0-1.2,1-2.2,2.2-2.2,1.2,0,2.2,1,2.2,2.2s-1,2.2-2.2,2.2h0c-1.2,0-2.2-1-2.2-2.2Z"/>
    <path id="Path_374" class="st0" d="M844.2,195.7c0-1.2,1-2.2,2.2-2.2s2.2,1,2.2,2.2c0,1.2-1,2.2-2.2,2.2h0c-1.2,0-2.2-1-2.2-2.2Z"/>
    <path id="Path_375" class="st0" d="M861.8,195.7c0-1.2,1-2.2,2.2-2.2s2.2,1,2.2,2.2c0,1.2-1,2.2-2.2,2.2h0c-1.2,0-2.2-1-2.2-2.2h0Z"/>
    <path id="Path_376" class="st0" d="M879.3,195.7c0-1.2,1-2.2,2.2-2.2s2.2,1,2.2,2.2c0,1.2-1,2.2-2.2,2.2h0c-1.2,0-2.2-1-2.2-2.2h0Z"/>
    <path id="Path_377" class="st0" d="M896.9,195.7c0-1.2,1-2.2,2.2-2.2s2.2,1,2.2,2.2-1,2.2-2.2,2.2-2.2-1-2.2-2.2h0Z"/>
    <path id="Path_378" class="st0" d="M914.5,195.7c0-1.2,1-2.2,2.2-2.2s2.2,1,2.2,2.2c0,1.2-1,2.2-2.2,2.2h0c-1.2,0-2.2-1-2.2-2.2Z"/>
    <path id="Path_379" class="st0" d="M949.7,195.7c0-1.2,1-2.2,2.2-2.2s2.2,1,2.2,2.2c0,1.2-1,2.2-2.2,2.2h0c-1.2,0-2.2-1-2.2-2.2h0Z"/>
    <circle id="Ellipse_124" class="st0" cx="178.1" cy="213.2" r="2.2"/>
    <circle id="Ellipse_125" class="st0" cx="195.7" cy="213.2" r="2.2"/>
    <path id="Path_380" class="st0" d="M211,213.2c0-1.2,1-2.2,2.2-2.2,1.2,0,2.2,1,2.2,2.2,0,1.2-1,2.2-2.2,2.2h0c-1.2,0-2.2-1-2.2-2.2Z"/>
    <circle id="Ellipse_126" class="st0" cx="283.6" cy="213.2" r="2.2"/>
    <circle id="Ellipse_127" class="st0" cx="494.6" cy="213.2" r="2.2"/>
    <path id="Path_381" class="st0" d="M510,213.2c0-1.2,1-2.2,2.2-2.2,1.2,0,2.2,1,2.2,2.2s-1,2.2-2.2,2.2h0c-1.2,0-2.2-1-2.2-2.2Z"/>
    <circle id="Ellipse_128" class="st0" cx="529.8" cy="213.2" r="2.2"/>
    <circle id="Ellipse_129" class="st0" cx="547.4" cy="213.2" r="2.2"/>
    <circle id="Ellipse_130" class="st0" cx="565" cy="213.2" r="2.2"/>
    <path id="Path_382" class="st0" d="M580.4,213.2c0-1.2,1-2.2,2.2-2.2,1.2,0,2.2,1,2.2,2.2s-1,2.2-2.2,2.2h0c-1.2,0-2.2-1-2.2-2.2h0Z"/>
    <path id="Path_383" class="st0" d="M598,213.2c0-1.2,1-2.2,2.2-2.2,1.2,0,2.2,1,2.2,2.2,0,1.2-1,2.2-2.2,2.2s-2.2-1-2.2-2.2h0Z"/>
    <path id="Path_384" class="st0" d="M615.5,213.2c0-1.2,1-2.2,2.2-2.2,1.2,0,2.2,1,2.2,2.2s-1,2.2-2.2,2.2h0c-1.2,0-2.2-1-2.2-2.2Z"/>
    <path id="Path_385" class="st0" d="M633.1,213.2c0-1.2,1-2.2,2.2-2.2,1.2,0,2.2,1,2.2,2.2s-1,2.2-2.2,2.2h0c-1.2,0-2.2-1-2.2-2.2Z"/>
    <path id="Path_386" class="st0" d="M650.7,213.2c0-1.2,1-2.2,2.2-2.2,1.2,0,2.2,1,2.2,2.2s-1,2.2-2.2,2.2h0c-1.2,0-2.2-1-2.2-2.2h0Z"/>
    <path id="Path_387" class="st0" d="M668.3,213.2c0-1.2,1-2.2,2.2-2.2,1.2,0,2.2,1,2.2,2.2,0,1.2-1,2.2-2.2,2.2s-2.2-1-2.2-2.2h0Z"/>
    <path id="Path_388" class="st0" d="M685.9,213.2c0-1.2,1-2.2,2.2-2.2,1.2,0,2.2,1,2.2,2.2s-1,2.2-2.2,2.2h0c-1.2,0-2.2-1-2.2-2.2Z"/>
    <path id="Path_389" class="st0" d="M738.6,213.2c0-1.2,1-2.2,2.2-2.2,1.2,0,2.2,1,2.2,2.2,0,1.2-1,2.2-2.2,2.2s-2.2-1-2.2-2.2h0Z"/>
    <path id="Path_390" class="st0" d="M756.2,213.2c0-1.2,1-2.2,2.2-2.2,1.2,0,2.2,1,2.2,2.2s-1,2.2-2.2,2.2h0c-1.2,0-2.2-1-2.2-2.2Z"/>
    <path id="Path_391" class="st0" d="M773.8,213.2c0-1.2,1-2.2,2.2-2.2,1.2,0,2.2,1,2.2,2.2s-1,2.2-2.2,2.2h0c-1.2,0-2.2-1-2.2-2.2Z"/>
    <path id="Path_392" class="st0" d="M791.4,213.2c0-1.2,1-2.2,2.2-2.2,1.2,0,2.2,1,2.2,2.2s-1,2.2-2.2,2.2h0c-1.2,0-2.2-1-2.2-2.2h0Z"/>
    <path id="Path_393" class="st0" d="M809,213.2c0-1.2,1-2.2,2.2-2.2,1.2,0,2.2,1,2.2,2.2s-1,2.2-2.2,2.2h0c-1.2,0-2.2-1-2.2-2.2h0Z"/>
    <path id="Path_394" class="st0" d="M826.6,213.2c0-1.2,1-2.2,2.2-2.2,1.2,0,2.2,1,2.2,2.2s-1,2.2-2.2,2.2h0c-1.2,0-2.2-1-2.2-2.2Z"/>
    <path id="Path_395" class="st0" d="M844.2,213.2c0-1.2,1-2.2,2.2-2.2,1.2,0,2.2,1,2.2,2.2,0,1.2-1,2.2-2.2,2.2h0c-1.2,0-2.2-1-2.2-2.2Z"/>
    <path id="Path_396" class="st0" d="M861.8,213.2c0-1.2,1-2.2,2.2-2.2,1.2,0,2.2,1,2.2,2.2,0,1.2-1,2.2-2.2,2.2h0c-1.2,0-2.2-1-2.2-2.2h0Z"/>
    <path id="Path_397" class="st0" d="M879.3,213.2c0-1.2,1-2.2,2.2-2.2,1.2,0,2.2,1,2.2,2.2,0,1.2-1,2.2-2.2,2.2h0c-1.2,0-2.2-1-2.2-2.2h0Z"/>
    <path id="Path_398" class="st0" d="M896.9,213.2c0-1.2,1-2.2,2.2-2.2,1.2,0,2.2,1,2.2,2.2s-1,2.2-2.2,2.2-2.2-1-2.2-2.2h0Z"/>
    <path id="Path_399" class="st0" d="M914.5,213.2c0-1.2,1-2.2,2.2-2.2,1.2,0,2.2,1,2.2,2.2,0,1.2-1,2.2-2.2,2.2h0c-1.2,0-2.2-1-2.2-2.2Z"/>
    <path id="Path_400" class="st0" d="M193.5,230.8c0-1.2,1-2.2,2.2-2.2s2.2,1,2.2,2.2-1,2.2-2.2,2.2h0c-1.2,0-2.2-1-2.2-2.2Z"/>
    <path id="Path_401" class="st0" d="M211,230.8c0-1.2,1-2.2,2.2-2.2s2.2,1,2.2,2.2-1,2.2-2.2,2.2h0c-1.2,0-2.2-1-2.2-2.2Z"/>
    <path id="Path_402" class="st0" d="M246.2,230.8c0-1.2,1-2.2,2.2-2.2s2.2,1,2.2,2.2-1,2.2-2.2,2.2h0c-1.2,0-2.2-1-2.2-2.2h0Z"/>
    <path id="Path_403" class="st0" d="M281.4,230.8c0-1.2,1-2.2,2.2-2.2s2.2,1,2.2,2.2-1,2.2-2.2,2.2h0c-1.2,0-2.2-1-2.2-2.2Z"/>
    <path id="Path_404" class="st0" d="M492.4,230.8c0-1.2,1-2.2,2.2-2.2s2.2,1,2.2,2.2-1,2.2-2.2,2.2h0c-1.2,0-2.2-1-2.2-2.2Z"/>
    <path id="Path_405" class="st0" d="M510,230.8c0-1.2,1-2.2,2.2-2.2s2.2,1,2.2,2.2-1,2.2-2.2,2.2h0c-1.2,0-2.2-1-2.2-2.2Z"/>
    <path id="Path_406" class="st0" d="M527.6,230.8c0-1.2,1-2.2,2.2-2.2s2.2,1,2.2,2.2-1,2.2-2.2,2.2h0c-1.2,0-2.2-1-2.2-2.2Z"/>
    <path id="Path_407" class="st0" d="M545.2,230.8c0-1.2,1-2.2,2.2-2.2s2.2,1,2.2,2.2-1,2.2-2.2,2.2h0c-1.2,0-2.2-1-2.2-2.2h0Z"/>
    <path id="Path_408" class="st0" d="M562.8,230.8c0-1.2,1-2.2,2.2-2.2s2.2,1,2.2,2.2-1,2.2-2.2,2.2h0c-1.2,0-2.2-1-2.2-2.2Z"/>
    <path id="Path_409" class="st0" d="M580.4,230.8c0-1.2,1-2.2,2.2-2.2s2.2,1,2.2,2.2-1,2.2-2.2,2.2h0c-1.2,0-2.2-1-2.2-2.2h0Z"/>
    <path id="Path_410" class="st0" d="M598,230.8c0-1.2,1-2.2,2.2-2.2,1.2,0,2.2,1,2.2,2.2,0,1.2-1,2.2-2.2,2.2s-2.2-1-2.2-2.2h0Z"/>
    <path id="Path_411" class="st0" d="M615.5,230.8c0-1.2,1-2.2,2.2-2.2s2.2,1,2.2,2.2-1,2.2-2.2,2.2h0c-1.2,0-2.2-1-2.2-2.2Z"/>
    <path id="Path_412" class="st0" d="M633.1,230.8c0-1.2,1-2.2,2.2-2.2s2.2,1,2.2,2.2-1,2.2-2.2,2.2h0c-1.2,0-2.2-1-2.2-2.2Z"/>
    <path id="Path_413" class="st0" d="M668.3,230.8c0-1.2,1-2.2,2.2-2.2,1.2,0,2.2,1,2.2,2.2,0,1.2-1,2.2-2.2,2.2s-2.2-1-2.2-2.2h0Z"/>
    <path id="Path_414" class="st0" d="M685.9,230.8c0-1.2,1-2.2,2.2-2.2s2.2,1,2.2,2.2-1,2.2-2.2,2.2h0c-1.2,0-2.2-1-2.2-2.2Z"/>
    <path id="Path_415" class="st0" d="M703.5,230.8c0-1.2,1-2.2,2.2-2.2s2.2,1,2.2,2.2-1,2.2-2.2,2.2h0c-1.2,0-2.2-1-2.2-2.2Z"/>
    <path id="Path_416" class="st0" d="M721.1,230.8c0-1.2,1-2.2,2.2-2.2s2.2,1,2.2,2.2-1,2.2-2.2,2.2h0c-1.2,0-2.2-1-2.2-2.2h0Z"/>
    <path id="Path_417" class="st0" d="M756.2,230.8c0-1.2,1-2.2,2.2-2.2s2.2,1,2.2,2.2-1,2.2-2.2,2.2h0c-1.2,0-2.2-1-2.2-2.2Z"/>
    <path id="Path_418" class="st0" d="M773.8,230.8c0-1.2,1-2.2,2.2-2.2s2.2,1,2.2,2.2-1,2.2-2.2,2.2h0c-1.2,0-2.2-1-2.2-2.2Z"/>
    <path id="Path_419" class="st0" d="M791.4,230.8c0-1.2,1-2.2,2.2-2.2s2.2,1,2.2,2.2-1,2.2-2.2,2.2h0c-1.2,0-2.2-1-2.2-2.2h0Z"/>
    <path id="Path_420" class="st0" d="M809,230.8c0-1.2,1-2.2,2.2-2.2s2.2,1,2.2,2.2-1,2.2-2.2,2.2h0c-1.2,0-2.2-1-2.2-2.2h0Z"/>
    <path id="Path_421" class="st0" d="M826.6,230.8c0-1.2,1-2.2,2.2-2.2s2.2,1,2.2,2.2-1,2.2-2.2,2.2h0c-1.2,0-2.2-1-2.2-2.2Z"/>
    <path id="Path_422" class="st0" d="M844.2,230.8c0-1.2,1-2.2,2.2-2.2s2.2,1,2.2,2.2-1,2.2-2.2,2.2h0c-1.2,0-2.2-1-2.2-2.2Z"/>
    <path id="Path_423" class="st0" d="M861.8,230.8c0-1.2,1-2.2,2.2-2.2s2.2,1,2.2,2.2-1,2.2-2.2,2.2h0c-1.2,0-2.2-1-2.2-2.2h0Z"/>
    <path id="Path_424" class="st0" d="M879.3,230.8c0-1.2,1-2.2,2.2-2.2s2.2,1,2.2,2.2-1,2.2-2.2,2.2h0c-1.2,0-2.2-1-2.2-2.2h0Z"/>
    <path id="Path_425" class="st0" d="M896.9,230.8c0-1.2,1-2.2,2.2-2.2s2.2,1,2.2,2.2c0,1.2-1,2.2-2.2,2.2s-2.2-1-2.2-2.2h0Z"/>
    <path id="Path_426" class="st0" d="M211,248.4c0-1.2,1-2.2,2.2-2.2s2.2,1,2.2,2.2-1,2.2-2.2,2.2h0c-1.2,0-2.2-1-2.2-2.2h0Z"/>
    <circle id="Ellipse_131" class="st0" cx="230.8" cy="248.4" r="2.2"/>
    <circle id="Ellipse_132" class="st0" cx="248.4" cy="248.4" r="2.2"/>
    <circle id="Ellipse_133" class="st0" cx="266" cy="248.4" r="2.2"/>
    <circle id="Ellipse_134" class="st0" cx="301.2" cy="248.4" r="2.2"/>
    <path id="Path_427" class="st0" d="M316.6,248.4c0-1.2,1-2.2,2.2-2.2s2.2,1,2.2,2.2-1,2.2-2.2,2.2h0c-1.2,0-2.2-1-2.2-2.2h0Z"/>
    <circle id="Ellipse_135" class="st0" cx="494.6" cy="248.4" r="2.2"/>
    <path id="Path_428" class="st0" d="M510,248.4c0-1.2,1-2.2,2.2-2.2s2.2,1,2.2,2.2-1,2.2-2.2,2.2h0c-1.2,0-2.2-1-2.2-2.2h0Z"/>
    <circle id="Ellipse_136" class="st0" cx="529.8" cy="248.4" r="2.2"/>
    <circle id="Ellipse_137" class="st0" cx="547.4" cy="248.4" r="2.2"/>
    <circle id="Ellipse_138" class="st0" cx="565" cy="248.4" r="2.2"/>
    <path id="Path_429" class="st0" d="M580.4,248.4c0-1.2,1-2.2,2.2-2.2s2.2,1,2.2,2.2-1,2.2-2.2,2.2h0c-1.2,0-2.2-1-2.2-2.2h0Z"/>
    <path id="Path_430" class="st0" d="M598,248.4c0-1.2,1-2.2,2.2-2.2,1.2,0,2.2,1,2.2,2.2,0,1.2-1,2.2-2.2,2.2-1.2,0-2.2-1-2.2-2.2h0Z"/>
    <path id="Path_431" class="st0" d="M615.5,248.4c0-1.2,1-2.2,2.2-2.2s2.2,1,2.2,2.2-1,2.2-2.2,2.2h0c-1.2,0-2.2-1-2.2-2.2h0Z"/>
    <path id="Path_432" class="st0" d="M633.1,248.4c0-1.2,1-2.2,2.2-2.2s2.2,1,2.2,2.2-1,2.2-2.2,2.2h0c-1.2,0-2.2-1-2.2-2.2h0Z"/>
    <path id="Path_433" class="st0" d="M650.7,248.4c0-1.2,1-2.2,2.2-2.2s2.2,1,2.2,2.2-1,2.2-2.2,2.2h0c-1.2,0-2.2-1-2.2-2.2h0Z"/>
    <path id="Path_434" class="st0" d="M685.9,248.4c0-1.2,1-2.2,2.2-2.2s2.2,1,2.2,2.2-1,2.2-2.2,2.2h0c-1.2,0-2.2-1-2.2-2.2h0Z"/>
    <path id="Path_435" class="st0" d="M703.5,248.4c0-1.2,1-2.2,2.2-2.2s2.2,1,2.2,2.2-1,2.2-2.2,2.2h0c-1.2,0-2.2-1-2.2-2.2h0Z"/>
    <path id="Path_436" class="st0" d="M773.8,248.4c0-1.2,1-2.2,2.2-2.2s2.2,1,2.2,2.2-1,2.2-2.2,2.2h0c-1.2,0-2.2-1-2.2-2.2h0Z"/>
    <path id="Path_437" class="st0" d="M791.4,248.4c0-1.2,1-2.2,2.2-2.2s2.2,1,2.2,2.2-1,2.2-2.2,2.2h0c-1.2,0-2.2-1-2.2-2.2h0Z"/>
    <path id="Path_438" class="st0" d="M844.2,248.4c0-1.2,1-2.2,2.2-2.2s2.2,1,2.2,2.2-1,2.2-2.2,2.2h0c-1.2,0-2.2-1-2.2-2.2h0Z"/>
    <path id="Path_439" class="st0" d="M861.8,248.4c0-1.2,1-2.2,2.2-2.2s2.2,1,2.2,2.2-1,2.2-2.2,2.2h0c-1.2,0-2.2-1-2.2-2.2h0Z"/>
    <path id="Path_440" class="st0" d="M879.3,248.4c0-1.2,1-2.2,2.2-2.2s2.2,1,2.2,2.2-1,2.2-2.2,2.2h0c-1.2,0-2.2-1-2.2-2.2h0Z"/>
    <path id="Path_441" class="st0" d="M914.5,248.4c0-1.2,1-2.2,2.2-2.2s2.2,1,2.2,2.2-1,2.2-2.2,2.2h0c-1.2,0-2.2-1-2.2-2.2h0Z"/>
    <path id="Path_442" class="st0" d="M246.2,266c0-1.2,1-2.2,2.2-2.2,1.2,0,2.2,1,2.2,2.2,0,1.2-1,2.2-2.2,2.2h0c-1.2,0-2.2-1-2.2-2.2Z"/>
    <path id="Path_443" class="st0" d="M263.8,266c0-1.2,1-2.2,2.2-2.2,1.2,0,2.2,1,2.2,2.2,0,1.2-1,2.2-2.2,2.2h0c-1.2,0-2.2-1-2.2-2.2Z"/>
    <path id="Path_444" class="st0" d="M299,266c0-1.2,1-2.2,2.2-2.2,1.2,0,2.2,1,2.2,2.2,0,1.2-1,2.2-2.2,2.2h0c-1.2,0-2.2-1-2.2-2.2Z"/>
    <path id="Path_445" class="st0" d="M316.6,266c0-1.2,1-2.2,2.2-2.2,1.2,0,2.2,1,2.2,2.2,0,1.2-1,2.2-2.2,2.2h0c-1.2,0-2.2-1-2.2-2.2Z"/>
    <path id="Path_446" class="st0" d="M492.4,266c0-1.2,1-2.2,2.2-2.2,1.2,0,2.2,1,2.2,2.2s-1,2.2-2.2,2.2h0c-1.2,0-2.2-1-2.2-2.2Z"/>
    <path id="Path_447" class="st0" d="M510,266c0-1.2,1-2.2,2.2-2.2,1.2,0,2.2,1,2.2,2.2s-1,2.2-2.2,2.2h0c-1.2,0-2.2-1-2.2-2.2Z"/>
    <path id="Path_448" class="st0" d="M527.6,266c0-1.2,1-2.2,2.2-2.2,1.2,0,2.2,1,2.2,2.2s-1,2.2-2.2,2.2h0c-1.2,0-2.2-1-2.2-2.2Z"/>
    <path id="Path_449" class="st0" d="M545.2,266c0-1.2,1-2.2,2.2-2.2,1.2,0,2.2,1,2.2,2.2s-1,2.2-2.2,2.2h0c-1.2,0-2.2-1-2.2-2.2h0Z"/>
    <path id="Path_450" class="st0" d="M562.8,266c0-1.2,1-2.2,2.2-2.2,1.2,0,2.2,1,2.2,2.2s-1,2.2-2.2,2.2h0c-1.2,0-2.2-1-2.2-2.2Z"/>
    <path id="Path_451" class="st0" d="M580.4,266c0-1.2,1-2.2,2.2-2.2,1.2,0,2.2,1,2.2,2.2s-1,2.2-2.2,2.2h0c-1.2,0-2.2-1-2.2-2.2h0Z"/>
    <path id="Path_452" class="st0" d="M598,266c0-1.2,1-2.2,2.2-2.2s2.2,1,2.2,2.2c0,1.2-1,2.2-2.2,2.2s-2.2-1-2.2-2.2h0Z"/>
    <path id="Path_453" class="st0" d="M615.5,266c0-1.2,1-2.2,2.2-2.2,1.2,0,2.2,1,2.2,2.2s-1,2.2-2.2,2.2h0c-1.2,0-2.2-1-2.2-2.2Z"/>
    <path id="Path_454" class="st0" d="M633.1,266c0-1.2,1-2.2,2.2-2.2,1.2,0,2.2,1,2.2,2.2s-1,2.2-2.2,2.2h0c-1.2,0-2.2-1-2.2-2.2Z"/>
    <path id="Path_455" class="st0" d="M650.7,266c0-1.2,1-2.2,2.2-2.2,1.2,0,2.2,1,2.2,2.2s-1,2.2-2.2,2.2h0c-1.2,0-2.2-1-2.2-2.2h0Z"/>
    <path id="Path_456" class="st0" d="M668.3,266c0-1.2,1-2.2,2.2-2.2s2.2,1,2.2,2.2c0,1.2-1,2.2-2.2,2.2s-2.2-1-2.2-2.2h0Z"/>
    <path id="Path_457" class="st0" d="M773.8,266c0-1.2,1-2.2,2.2-2.2,1.2,0,2.2,1,2.2,2.2s-1,2.2-2.2,2.2h0c-1.2,0-2.2-1-2.2-2.2Z"/>
    <path id="Path_458" class="st0" d="M791.4,266c0-1.2,1-2.2,2.2-2.2,1.2,0,2.2,1,2.2,2.2s-1,2.2-2.2,2.2h0c-1.2,0-2.2-1-2.2-2.2h0Z"/>
    <path id="Path_459" class="st0" d="M844.2,266c0-1.2,1-2.2,2.2-2.2,1.2,0,2.2,1,2.2,2.2,0,1.2-1,2.2-2.2,2.2h0c-1.2,0-2.2-1-2.2-2.2Z"/>
    <path id="Path_460" class="st0" d="M861.8,266c0-1.2,1-2.2,2.2-2.2,1.2,0,2.2,1,2.2,2.2,0,1.2-1,2.2-2.2,2.2h0c-1.2,0-2.2-1-2.2-2.2h0Z"/>
    <path id="Path_461" class="st0" d="M879.3,266c0-1.2,1-2.2,2.2-2.2,1.2,0,2.2,1,2.2,2.2,0,1.2-1,2.2-2.2,2.2h0c-1.2,0-2.2-1-2.2-2.2h0Z"/>
    <path id="Path_462" class="st0" d="M932.1,266c0-1.2,1-2.2,2.2-2.2,1.2,0,2.2,1,2.2,2.2,0,1.2-1,2.2-2.2,2.2h0c-1.2,0-2.2-1-2.2-2.2Z"/>
    <path id="Path_463" class="st0" d="M281.4,283.6c0-1.2,1-2.2,2.2-2.2,1.2,0,2.2,1,2.2,2.2,0,1.2-1,2.2-2.2,2.2h0c-1.2,0-2.2-1-2.2-2.2Z"/>
    <path id="Path_464" class="st0" d="M299,283.6c0-1.2,1-2.2,2.2-2.2,1.2,0,2.2,1,2.2,2.2,0,1.2-1,2.2-2.2,2.2h0c-1.2,0-2.2-1-2.2-2.2Z"/>
    <path id="Path_465" class="st0" d="M316.6,283.6c0-1.2,1-2.2,2.2-2.2,1.2,0,2.2,1,2.2,2.2,0,1.2-1,2.2-2.2,2.2h0c-1.2,0-2.2-1-2.2-2.2Z"/>
    <path id="Path_466" class="st0" d="M334.2,283.6c0-1.2,1-2.2,2.2-2.2s2.2,1,2.2,2.2-1,2.2-2.2,2.2h0c-1.2,0-2.2-1-2.2-2.2Z"/>
    <path id="Path_467" class="st0" d="M351.7,283.6c0-1.2,1-2.2,2.2-2.2,1.2,0,2.2,1,2.2,2.2,0,1.2-1,2.2-2.2,2.2h0c-1.2,0-2.2-1-2.2-2.2Z"/>
    <path id="Path_468" class="st0" d="M510,283.6c0-1.2,1-2.2,2.2-2.2,1.2,0,2.2,1,2.2,2.2s-1,2.2-2.2,2.2h0c-1.2,0-2.2-1-2.2-2.2Z"/>
    <path id="Path_469" class="st0" d="M527.6,283.6c0-1.2,1-2.2,2.2-2.2,1.2,0,2.2,1,2.2,2.2s-1,2.2-2.2,2.2h0c-1.2,0-2.2-1-2.2-2.2Z"/>
    <path id="Path_470" class="st0" d="M545.2,283.6c0-1.2,1-2.2,2.2-2.2,1.2,0,2.2,1,2.2,2.2s-1,2.2-2.2,2.2h0c-1.2,0-2.2-1-2.2-2.2h0Z"/>
    <path id="Path_471" class="st0" d="M562.8,283.6c0-1.2,1-2.2,2.2-2.2,1.2,0,2.2,1,2.2,2.2s-1,2.2-2.2,2.2h0c-1.2,0-2.2-1-2.2-2.2Z"/>
    <path id="Path_472" class="st0" d="M580.4,283.6c0-1.2,1-2.2,2.2-2.2,1.2,0,2.2,1,2.2,2.2s-1,2.2-2.2,2.2h0c-1.2,0-2.2-1-2.2-2.2h0Z"/>
    <path id="Path_473" class="st0" d="M598,283.6c0-1.2,1-2.2,2.2-2.2s2.2,1,2.2,2.2c0,1.2-1,2.2-2.2,2.2s-2.2-1-2.2-2.2h0Z"/>
    <path id="Path_474" class="st0" d="M615.5,283.6c0-1.2,1-2.2,2.2-2.2,1.2,0,2.2,1,2.2,2.2s-1,2.2-2.2,2.2h0c-1.2,0-2.2-1-2.2-2.2Z"/>
    <path id="Path_475" class="st0" d="M633.1,283.6c0-1.2,1-2.2,2.2-2.2,1.2,0,2.2,1,2.2,2.2s-1,2.2-2.2,2.2h0c-1.2,0-2.2-1-2.2-2.2Z"/>
    <path id="Path_476" class="st0" d="M650.7,283.6c0-1.2,1-2.2,2.2-2.2,1.2,0,2.2,1,2.2,2.2s-1,2.2-2.2,2.2h0c-1.2,0-2.2-1-2.2-2.2h0Z"/>
    <path id="Path_477" class="st0" d="M668.3,283.6c0-1.2,1-2.2,2.2-2.2s2.2,1,2.2,2.2c0,1.2-1,2.2-2.2,2.2s-2.2-1-2.2-2.2h0Z"/>
    <path id="Path_478" class="st0" d="M685.9,283.6c0-1.2,1-2.2,2.2-2.2,1.2,0,2.2,1,2.2,2.2s-1,2.2-2.2,2.2h0c-1.2,0-2.2-1-2.2-2.2Z"/>
    <path id="Path_479" class="st0" d="M791.4,283.6c0-1.2,1-2.2,2.2-2.2,1.2,0,2.2,1,2.2,2.2s-1,2.2-2.2,2.2h0c-1.2,0-2.2-1-2.2-2.2h0Z"/>
    <path id="Path_480" class="st0" d="M861.8,283.6c0-1.2,1-2.2,2.2-2.2,1.2,0,2.2,1,2.2,2.2,0,1.2-1,2.2-2.2,2.2h0c-1.2,0-2.2-1-2.2-2.2h0Z"/>
    <path id="Path_481" class="st0" d="M914.5,283.6c0-1.2,1-2.2,2.2-2.2,1.2,0,2.2,1,2.2,2.2,0,1.2-1,2.2-2.2,2.2h0c-1.2,0-2.2-1-2.2-2.2Z"/>
    <circle id="Ellipse_139" class="st0" cx="283.6" cy="301.2" r="2.2"/>
    <circle id="Ellipse_140" class="st0" cx="301.2" cy="301.2" r="2.2"/>
    <path id="Path_482" class="st0" d="M316.6,301.2c0-1.2,1-2.2,2.2-2.2,1.2,0,2.2,1,2.2,2.2,0,1.2-1,2.2-2.2,2.2h0c-1.2,0-2.2-1-2.2-2.2Z"/>
    <circle id="Ellipse_141" class="st0" cx="336.3" cy="301.2" r="2.2"/>
    <circle id="Ellipse_142" class="st0" cx="353.9" cy="301.2" r="2.2"/>
    <circle id="Ellipse_143" class="st0" cx="371.5" cy="301.2" r="2.2"/>
    <path id="Path_483" class="st0" d="M510,301.2c0-1.2,1-2.2,2.2-2.2,1.2,0,2.2,1,2.2,2.2s-1,2.2-2.2,2.2h0c-1.2,0-2.2-1-2.2-2.2Z"/>
    <circle id="Ellipse_144" class="st0" cx="529.8" cy="301.2" r="2.2"/>
    <circle id="Ellipse_145" class="st0" cx="565" cy="301.2" r="2.2"/>
    <path id="Path_484" class="st0" d="M580.4,301.2c0-1.2,1-2.2,2.2-2.2,1.2,0,2.2,1,2.2,2.2s-1,2.2-2.2,2.2h0c-1.2,0-2.2-1-2.2-2.2h0Z"/>
    <path id="Path_485" class="st0" d="M598,301.2c0-1.2,1-2.2,2.2-2.2s2.2,1,2.2,2.2c0,1.2-1,2.2-2.2,2.2s-2.2-1-2.2-2.2h0Z"/>
    <path id="Path_486" class="st0" d="M615.5,301.2c0-1.2,1-2.2,2.2-2.2,1.2,0,2.2,1,2.2,2.2s-1,2.2-2.2,2.2h0c-1.2,0-2.2-1-2.2-2.2Z"/>
    <path id="Path_487" class="st0" d="M633.1,301.2c0-1.2,1-2.2,2.2-2.2,1.2,0,2.2,1,2.2,2.2s-1,2.2-2.2,2.2h0c-1.2,0-2.2-1-2.2-2.2Z"/>
    <path id="Path_488" class="st0" d="M650.7,301.2c0-1.2,1-2.2,2.2-2.2,1.2,0,2.2,1,2.2,2.2s-1,2.2-2.2,2.2h0c-1.2,0-2.2-1-2.2-2.2h0Z"/>
    <path id="Path_489" class="st0" d="M668.3,301.2c0-1.2,1-2.2,2.2-2.2s2.2,1,2.2,2.2c0,1.2-1,2.2-2.2,2.2s-2.2-1-2.2-2.2h0Z"/>
    <path id="Path_490" class="st0" d="M685.9,301.2c0-1.2,1-2.2,2.2-2.2,1.2,0,2.2,1,2.2,2.2s-1,2.2-2.2,2.2h0c-1.2,0-2.2-1-2.2-2.2Z"/>
    <path id="Path_491" class="st0" d="M844.2,301.2c0-1.2,1-2.2,2.2-2.2,1.2,0,2.2,1,2.2,2.2,0,1.2-1,2.2-2.2,2.2h0c-1.2,0-2.2-1-2.2-2.2Z"/>
    <path id="Path_492" class="st0" d="M861.8,301.2c0-1.2,1-2.2,2.2-2.2,1.2,0,2.2,1,2.2,2.2,0,1.2-1,2.2-2.2,2.2h0c-1.2,0-2.2-1-2.2-2.2h0Z"/>
    <path id="Path_493" class="st0" d="M896.9,301.2c0-1.2,1-2.2,2.2-2.2s2.2,1,2.2,2.2-1,2.2-2.2,2.2-2.2-1-2.2-2.2h0Z"/>
    <path id="Path_494" class="st0" d="M914.5,301.2c0-1.2,1-2.2,2.2-2.2,1.2,0,2.2,1,2.2,2.2,0,1.2-1,2.2-2.2,2.2h0c-1.2,0-2.2-1-2.2-2.2Z"/>
    <path id="Path_495" class="st0" d="M949.7,301.2c0-1.2,1-2.2,2.2-2.2,1.2,0,2.2,1,2.2,2.2,0,1.2-1,2.2-2.2,2.2h0c-1.2,0-2.2-1-2.2-2.2h0Z"/>
    <path id="Path_496" class="st0" d="M281.4,318.8c0-1.2,1-2.2,2.2-2.2s2.2,1,2.2,2.2-1,2.2-2.2,2.2h0c-1.2,0-2.2-1-2.2-2.2h0Z"/>
    <path id="Path_497" class="st0" d="M299,318.8c0-1.2,1-2.2,2.2-2.2s2.2,1,2.2,2.2-1,2.2-2.2,2.2h0c-1.2,0-2.2-1-2.2-2.2h0Z"/>
    <path id="Path_498" class="st0" d="M316.6,318.8c0-1.2,1-2.2,2.2-2.2s2.2,1,2.2,2.2-1,2.2-2.2,2.2h0c-1.2,0-2.2-1-2.2-2.2h0Z"/>
    <path id="Path_499" class="st0" d="M334.2,318.8c0-1.2,1-2.2,2.2-2.2s2.2,1,2.2,2.2c0,1.2-1,2.2-2.2,2.2-1.2,0-2.2-1-2.2-2.2h0Z"/>
    <path id="Path_500" class="st0" d="M351.7,318.8c0-1.2,1-2.2,2.2-2.2s2.2,1,2.2,2.2-1,2.2-2.2,2.2h0c-1.2,0-2.2-1-2.2-2.2h0Z"/>
    <path id="Path_501" class="st0" d="M369.3,318.8c0-1.2,1-2.2,2.2-2.2s2.2,1,2.2,2.2-1,2.2-2.2,2.2h0c-1.2,0-2.2-1-2.2-2.2h0Z"/>
    <path id="Path_502" class="st0" d="M386.9,318.8c0-1.2,1-2.2,2.2-2.2s2.2,1,2.2,2.2-1,2.2-2.2,2.2h0c-1.2,0-2.2-1-2.2-2.2h0Z"/>
    <path id="Path_503" class="st0" d="M404.5,318.8c0-1.2,1-2.2,2.2-2.2s2.2,1,2.2,2.2c0,1.2-1,2.2-2.2,2.2-1.2,0-2.2-1-2.2-2.2h0Z"/>
    <path id="Path_504" class="st0" d="M562.8,318.8c0-1.2,1-2.2,2.2-2.2s2.2,1,2.2,2.2-1,2.2-2.2,2.2h0c-1.2,0-2.2-1-2.2-2.2h0Z"/>
    <path id="Path_505" class="st0" d="M580.4,318.8c0-1.2,1-2.2,2.2-2.2s2.2,1,2.2,2.2-1,2.2-2.2,2.2h0c-1.2,0-2.2-1-2.2-2.2h0Z"/>
    <path id="Path_506" class="st0" d="M598,318.8c0-1.2,1-2.2,2.2-2.2,1.2,0,2.2,1,2.2,2.2,0,1.2-1,2.2-2.2,2.2-1.2,0-2.2-1-2.2-2.2h0Z"/>
    <path id="Path_507" class="st0" d="M615.5,318.8c0-1.2,1-2.2,2.2-2.2s2.2,1,2.2,2.2-1,2.2-2.2,2.2h0c-1.2,0-2.2-1-2.2-2.2h0Z"/>
    <path id="Path_508" class="st0" d="M633.1,318.8c0-1.2,1-2.2,2.2-2.2s2.2,1,2.2,2.2-1,2.2-2.2,2.2h0c-1.2,0-2.2-1-2.2-2.2h0Z"/>
    <path id="Path_509" class="st0" d="M650.7,318.8c0-1.2,1-2.2,2.2-2.2s2.2,1,2.2,2.2-1,2.2-2.2,2.2h0c-1.2,0-2.2-1-2.2-2.2h0Z"/>
    <path id="Path_510" class="st0" d="M668.3,318.8c0-1.2,1-2.2,2.2-2.2,1.2,0,2.2,1,2.2,2.2,0,1.2-1,2.2-2.2,2.2-1.2,0-2.2-1-2.2-2.2h0Z"/>
    <path id="Path_511" class="st0" d="M861.8,318.8c0-1.2,1-2.2,2.2-2.2s2.2,1,2.2,2.2-1,2.2-2.2,2.2h0c-1.2,0-2.2-1-2.2-2.2h0Z"/>
    <path id="Path_512" class="st0" d="M896.9,318.8c0-1.2,1-2.2,2.2-2.2s2.2,1,2.2,2.2c0,1.2-1,2.2-2.2,2.2-1.2,0-2.2-1-2.2-2.2h0Z"/>
    <path id="Path_513" class="st0" d="M914.5,318.8c0-1.2,1-2.2,2.2-2.2s2.2,1,2.2,2.2-1,2.2-2.2,2.2h0c-1.2,0-2.2-1-2.2-2.2h0Z"/>
    <path id="Path_514" class="st0" d="M932.1,318.8c0-1.2,1-2.2,2.2-2.2s2.2,1,2.2,2.2-1,2.2-2.2,2.2h0c-1.2,0-2.2-1-2.2-2.2h0Z"/>
    <path id="Path_515" class="st0" d="M949.7,318.8c0-1.2,1-2.2,2.2-2.2s2.2,1,2.2,2.2-1,2.2-2.2,2.2h0c-1.2,0-2.2-1-2.2-2.2h0Z"/>
    <path id="Path_516" class="st0" d="M967.3,318.8c0-1.2,1-2.2,2.2-2.2s2.2,1,2.2,2.2c0,1.2-1,2.2-2.2,2.2-1.2,0-2.2-1-2.2-2.2h0Z"/>
    <path id="Path_517" class="st0" d="M984.9,318.8c0-1.2,1-2.2,2.2-2.2s2.2,1,2.2,2.2-1,2.2-2.2,2.2h0c-1.2,0-2.2-1-2.2-2.2h0Z"/>
    <path id="Path_518" class="st0" d="M1020,318.8c0-1.2,1-2.2,2.2-2.2s2.2,1,2.2,2.2-1,2.2-2.2,2.2h0c-1.2,0-2.2-1-2.2-2.2h0Z"/>
    <path id="Path_519" class="st0" d="M281.4,336.4c0-1.2,1-2.2,2.2-2.2,1.2,0,2.2,1,2.2,2.2,0,1.2-1,2.2-2.2,2.2h0c-1.2,0-2.2-1-2.2-2.2h0Z"/>
    <path id="Path_520" class="st0" d="M299,336.4c0-1.2,1-2.2,2.2-2.2,1.2,0,2.2,1,2.2,2.2,0,1.2-1,2.2-2.2,2.2h0c-1.2,0-2.2-1-2.2-2.2Z"/>
    <path id="Path_521" class="st0" d="M316.6,336.4c0-1.2,1-2.2,2.2-2.2,1.2,0,2.2,1,2.2,2.2,0,1.2-1,2.2-2.2,2.2h0c-1.2,0-2.2-1-2.2-2.2h0Z"/>
    <path id="Path_522" class="st0" d="M334.2,336.4c0-1.2,1-2.2,2.2-2.2s2.2,1,2.2,2.2-1,2.2-2.2,2.2h0c-1.2,0-2.2-1-2.2-2.2h0Z"/>
    <path id="Path_523" class="st0" d="M351.7,336.4c0-1.2,1-2.2,2.2-2.2,1.2,0,2.2,1,2.2,2.2,0,1.2-1,2.2-2.2,2.2h0c-1.2,0-2.2-1-2.2-2.2h0Z"/>
    <path id="Path_524" class="st0" d="M369.3,336.4c0-1.2,1-2.2,2.2-2.2,1.2,0,2.2,1,2.2,2.2,0,1.2-1,2.2-2.2,2.2h0c-1.2,0-2.2-1-2.2-2.2Z"/>
    <path id="Path_525" class="st0" d="M386.9,336.4c0-1.2,1-2.2,2.2-2.2,1.2,0,2.2,1,2.2,2.2,0,1.2-1,2.2-2.2,2.2h0c-1.2,0-2.2-1-2.2-2.2h0Z"/>
    <path id="Path_526" class="st0" d="M404.5,336.4c0-1.2,1-2.2,2.2-2.2s2.2,1,2.2,2.2-1,2.2-2.2,2.2h0c-1.2,0-2.2-1-2.2-2.2h0Z"/>
    <path id="Path_527" class="st0" d="M422.1,336.4c0-1.2,1-2.2,2.2-2.2,1.2,0,2.2,1,2.2,2.2s-1,2.2-2.2,2.2h0c-1.2,0-2.2-1-2.2-2.2h0Z"/>
    <path id="Path_528" class="st0" d="M580.4,336.4c0-1.2,1-2.2,2.2-2.2,1.2,0,2.2,1,2.2,2.2s-1,2.2-2.2,2.2h0c-1.2,0-2.2-1-2.2-2.2h0Z"/>
    <path id="Path_529" class="st0" d="M598,336.4c0-1.2,1-2.2,2.2-2.2s2.2,1,2.2,2.2c0,1.2-1,2.2-2.2,2.2-1.2,0-2.2-1-2.2-2.2h0Z"/>
    <path id="Path_530" class="st0" d="M615.5,336.4c0-1.2,1-2.2,2.2-2.2,1.2,0,2.2,1,2.2,2.2s-1,2.2-2.2,2.2h0c-1.2,0-2.2-1-2.2-2.2h0Z"/>
    <path id="Path_531" class="st0" d="M633.1,336.4c0-1.2,1-2.2,2.2-2.2,1.2,0,2.2,1,2.2,2.2s-1,2.2-2.2,2.2h0c-1.2,0-2.2-1-2.2-2.2h0Z"/>
    <path id="Path_532" class="st0" d="M650.7,336.4c0-1.2,1-2.2,2.2-2.2,1.2,0,2.2,1,2.2,2.2s-1,2.2-2.2,2.2h0c-1.2,0-2.2-1-2.2-2.2h0Z"/>
    <path id="Path_533" class="st0" d="M879.3,336.4c0-1.2,1-2.2,2.2-2.2,1.2,0,2.2,1,2.2,2.2,0,1.2-1,2.2-2.2,2.2h0c-1.2,0-2.2-1-2.2-2.2h0Z"/>
    <path id="Path_534" class="st0" d="M984.9,336.4c0-1.2,1-2.2,2.2-2.2,1.2,0,2.2,1,2.2,2.2,0,1.2-1,2.2-2.2,2.2h0c-1.2,0-2.2-1-2.2-2.2h0Z"/>
    <path id="Path_535" class="st0" d="M1002.5,336.4c0-1.2,1-2.2,2.2-2.2,1.2,0,2.2,1,2.2,2.2,0,1.2-1,2.2-2.2,2.2h0c-1.2,0-2.2-1-2.2-2.2h0Z"/>
    <path id="Path_536" class="st0" d="M299,353.9c0-1.2,1-2.2,2.2-2.2,1.2,0,2.2,1,2.2,2.2,0,1.2-1,2.2-2.2,2.2h0c-1.2,0-2.2-1-2.2-2.2Z"/>
    <path id="Path_537" class="st0" d="M316.6,353.9c0-1.2,1-2.2,2.2-2.2,1.2,0,2.2,1,2.2,2.2,0,1.2-1,2.2-2.2,2.2h0c-1.2,0-2.2-1-2.2-2.2Z"/>
    <path id="Path_538" class="st0" d="M334.2,353.9c0-1.2,1-2.2,2.2-2.2s2.2,1,2.2,2.2-1,2.2-2.2,2.2h0c-1.2,0-2.2-1-2.2-2.2Z"/>
    <path id="Path_539" class="st0" d="M351.7,353.9c0-1.2,1-2.2,2.2-2.2,1.2,0,2.2,1,2.2,2.2,0,1.2-1,2.2-2.2,2.2h0c-1.2,0-2.2-1-2.2-2.2Z"/>
    <path id="Path_540" class="st0" d="M369.3,353.9c0-1.2,1-2.2,2.2-2.2,1.2,0,2.2,1,2.2,2.2,0,1.2-1,2.2-2.2,2.2h0c-1.2,0-2.2-1-2.2-2.2Z"/>
    <path id="Path_541" class="st0" d="M386.9,353.9c0-1.2,1-2.2,2.2-2.2,1.2,0,2.2,1,2.2,2.2,0,1.2-1,2.2-2.2,2.2h0c-1.2,0-2.2-1-2.2-2.2Z"/>
    <path id="Path_542" class="st0" d="M404.5,353.9c0-1.2,1-2.2,2.2-2.2s2.2,1,2.2,2.2-1,2.2-2.2,2.2h0c-1.2,0-2.2-1-2.2-2.2Z"/>
    <path id="Path_543" class="st0" d="M422.1,353.9c0-1.2,1-2.2,2.2-2.2,1.2,0,2.2,1,2.2,2.2s-1,2.2-2.2,2.2h0c-1.2,0-2.2-1-2.2-2.2Z"/>
    <path id="Path_544" class="st0" d="M580.4,353.9c0-1.2,1-2.2,2.2-2.2,1.2,0,2.2,1,2.2,2.2s-1,2.2-2.2,2.2h0c-1.2,0-2.2-1-2.2-2.2h0Z"/>
    <path id="Path_545" class="st0" d="M598,353.9c0-1.2,1-2.2,2.2-2.2s2.2,1,2.2,2.2c0,1.2-1,2.2-2.2,2.2s-2.2-1-2.2-2.2h0Z"/>
    <path id="Path_546" class="st0" d="M615.5,353.9c0-1.2,1-2.2,2.2-2.2,1.2,0,2.2,1,2.2,2.2s-1,2.2-2.2,2.2h0c-1.2,0-2.2-1-2.2-2.2Z"/>
    <path id="Path_547" class="st0" d="M633.1,353.9c0-1.2,1-2.2,2.2-2.2,1.2,0,2.2,1,2.2,2.2s-1,2.2-2.2,2.2h0c-1.2,0-2.2-1-2.2-2.2Z"/>
    <path id="Path_548" class="st0" d="M650.7,353.9c0-1.2,1-2.2,2.2-2.2,1.2,0,2.2,1,2.2,2.2s-1,2.2-2.2,2.2h0c-1.2,0-2.2-1-2.2-2.2h0Z"/>
    <path id="Path_549" class="st0" d="M896.9,353.9c0-1.2,1-2.2,2.2-2.2s2.2,1,2.2,2.2-1,2.2-2.2,2.2-2.2-1-2.2-2.2h0Z"/>
    <path id="Path_550" class="st0" d="M932.1,353.9c0-1.2,1-2.2,2.2-2.2,1.2,0,2.2,1,2.2,2.2,0,1.2-1,2.2-2.2,2.2h0c-1.2,0-2.2-1-2.2-2.2Z"/>
    <path id="Path_551" class="st0" d="M949.7,353.9c0-1.2,1-2.2,2.2-2.2,1.2,0,2.2,1,2.2,2.2,0,1.2-1,2.2-2.2,2.2h0c-1.2,0-2.2-1-2.2-2.2h0Z"/>
    <path id="Path_552" class="st0" d="M1020,353.9c0-1.2,1-2.2,2.2-2.2,1.2,0,2.2,1,2.2,2.2,0,1.2-1,2.2-2.2,2.2h0c-1.2,0-2.2-1-2.2-2.2h0Z"/>
    <path id="Path_553" class="st0" d="M299,371.5c0-1.2,1-2.2,2.2-2.2s2.2,1,2.2,2.2-1,2.2-2.2,2.2h0c-1.2,0-2.2-1-2.2-2.2h0Z"/>
    <path id="Path_554" class="st0" d="M316.6,371.5c0-1.2,1-2.2,2.2-2.2s2.2,1,2.2,2.2-1,2.2-2.2,2.2h0c-1.2,0-2.2-1-2.2-2.2h0Z"/>
    <path id="Path_555" class="st0" d="M334.2,371.5c0-1.2,1-2.2,2.2-2.2s2.2,1,2.2,2.2c0,1.2-1,2.2-2.2,2.2-1.2,0-2.2-1-2.2-2.2h0Z"/>
    <path id="Path_556" class="st0" d="M351.7,371.5c0-1.2,1-2.2,2.2-2.2s2.2,1,2.2,2.2-1,2.2-2.2,2.2h0c-1.2,0-2.2-1-2.2-2.2h0Z"/>
    <path id="Path_557" class="st0" d="M369.3,371.5c0-1.2,1-2.2,2.2-2.2s2.2,1,2.2,2.2-1,2.2-2.2,2.2h0c-1.2,0-2.2-1-2.2-2.2h0Z"/>
    <path id="Path_558" class="st0" d="M386.9,371.5c0-1.2,1-2.2,2.2-2.2s2.2,1,2.2,2.2-1,2.2-2.2,2.2h0c-1.2,0-2.2-1-2.2-2.2h0Z"/>
    <path id="Path_559" class="st0" d="M404.5,371.5c0-1.2,1-2.2,2.2-2.2s2.2,1,2.2,2.2c0,1.2-1,2.2-2.2,2.2-1.2,0-2.2-1-2.2-2.2h0Z"/>
    <path id="Path_560" class="st0" d="M580.4,371.5c0-1.2,1-2.2,2.2-2.2s2.2,1,2.2,2.2-1,2.2-2.2,2.2h0c-1.2,0-2.2-1-2.2-2.2h0Z"/>
    <path id="Path_561" class="st0" d="M598,371.5c0-1.2,1-2.2,2.2-2.2,1.2,0,2.2,1,2.2,2.2,0,1.2-1,2.2-2.2,2.2-1.2,0-2.2-1-2.2-2.2h0Z"/>
    <path id="Path_562" class="st0" d="M615.5,371.5c0-1.2,1-2.2,2.2-2.2s2.2,1,2.2,2.2-1,2.2-2.2,2.2h0c-1.2,0-2.2-1-2.2-2.2h0Z"/>
    <path id="Path_563" class="st0" d="M633.1,371.5c0-1.2,1-2.2,2.2-2.2s2.2,1,2.2,2.2-1,2.2-2.2,2.2h0c-1.2,0-2.2-1-2.2-2.2h0Z"/>
    <path id="Path_564" class="st0" d="M650.7,371.5c0-1.2,1-2.2,2.2-2.2s2.2,1,2.2,2.2-1,2.2-2.2,2.2h0c-1.2,0-2.2-1-2.2-2.2h0Z"/>
    <path id="Path_565" class="st0" d="M685.9,371.5c0-1.2,1-2.2,2.2-2.2s2.2,1,2.2,2.2-1,2.2-2.2,2.2h0c-1.2,0-2.2-1-2.2-2.2h0Z"/>
    <path id="Path_566" class="st0" d="M932.1,371.5c0-1.2,1-2.2,2.2-2.2s2.2,1,2.2,2.2-1,2.2-2.2,2.2h0c-1.2,0-2.2-1-2.2-2.2h0Z"/>
    <path id="Path_567" class="st0" d="M949.7,371.5c0-1.2,1-2.2,2.2-2.2s2.2,1,2.2,2.2-1,2.2-2.2,2.2h0c-1.2,0-2.2-1-2.2-2.2h0Z"/>
    <path id="Path_568" class="st0" d="M967.3,371.5c0-1.2,1-2.2,2.2-2.2s2.2,1,2.2,2.2c0,1.2-1,2.2-2.2,2.2-1.2,0-2.2-1-2.2-2.2h0Z"/>
    <path id="Path_569" class="st0" d="M984.9,371.5c0-1.2,1-2.2,2.2-2.2s2.2,1,2.2,2.2-1,2.2-2.2,2.2h0c-1.2,0-2.2-1-2.2-2.2h0Z"/>
    <path id="Path_570" class="st0" d="M1002.5,371.5c0-1.2,1-2.2,2.2-2.2s2.2,1,2.2,2.2-1,2.2-2.2,2.2h0c-1.2,0-2.2-1-2.2-2.2h0Z"/>
    <path id="Path_571" class="st0" d="M316.6,389.1c0-1.2,1-2.2,2.2-2.2s2.2,1,2.2,2.2-1,2.2-2.2,2.2h0c-1.2,0-2.2-1-2.2-2.2h0Z"/>
    <path id="Path_572" class="st0" d="M334.2,389.1c0-1.2,1-2.2,2.2-2.2s2.2,1,2.2,2.2c0,1.2-1,2.2-2.2,2.2-1.2,0-2.2-1-2.2-2.2h0Z"/>
    <path id="Path_573" class="st0" d="M351.7,389.1c0-1.2,1-2.2,2.2-2.2s2.2,1,2.2,2.2-1,2.2-2.2,2.2h0c-1.2,0-2.2-1-2.2-2.2h0Z"/>
    <path id="Path_574" class="st0" d="M369.3,389.1c0-1.2,1-2.2,2.2-2.2s2.2,1,2.2,2.2-1,2.2-2.2,2.2h0c-1.2,0-2.2-1-2.2-2.2h0Z"/>
    <path id="Path_575" class="st0" d="M386.9,389.1c0-1.2,1-2.2,2.2-2.2s2.2,1,2.2,2.2-1,2.2-2.2,2.2h0c-1.2,0-2.2-1-2.2-2.2h0Z"/>
    <path id="Path_576" class="st0" d="M404.5,389.1c0-1.2,1-2.2,2.2-2.2s2.2,1,2.2,2.2c0,1.2-1,2.2-2.2,2.2-1.2,0-2.2-1-2.2-2.2h0Z"/>
    <path id="Path_577" class="st0" d="M580.4,389.1c0-1.2,1-2.2,2.2-2.2s2.2,1,2.2,2.2-1,2.2-2.2,2.2h0c-1.2,0-2.2-1-2.2-2.2h0Z"/>
    <path id="Path_578" class="st0" d="M598,389.1c0-1.2,1-2.2,2.2-2.2,1.2,0,2.2,1,2.2,2.2,0,1.2-1,2.2-2.2,2.2-1.2,0-2.2-1-2.2-2.2h0Z"/>
    <path id="Path_579" class="st0" d="M615.5,389.1c0-1.2,1-2.2,2.2-2.2s2.2,1,2.2,2.2-1,2.2-2.2,2.2h0c-1.2,0-2.2-1-2.2-2.2h0Z"/>
    <path id="Path_580" class="st0" d="M633.1,389.1c0-1.2,1-2.2,2.2-2.2s2.2,1,2.2,2.2-1,2.2-2.2,2.2h0c-1.2,0-2.2-1-2.2-2.2h0Z"/>
    <path id="Path_581" class="st0" d="M685.9,389.1c0-1.2,1-2.2,2.2-2.2s2.2,1,2.2,2.2-1,2.2-2.2,2.2h0c-1.2,0-2.2-1-2.2-2.2h0Z"/>
    <path id="Path_582" class="st0" d="M896.9,389.1c0-1.2,1-2.2,2.2-2.2s2.2,1,2.2,2.2c0,1.2-1,2.2-2.2,2.2-1.2,0-2.2-1-2.2-2.2h0Z"/>
    <path id="Path_583" class="st0" d="M914.5,389.1c0-1.2,1-2.2,2.2-2.2s2.2,1,2.2,2.2-1,2.2-2.2,2.2h0c-1.2,0-2.2-1-2.2-2.2h0Z"/>
    <path id="Path_584" class="st0" d="M932.1,389.1c0-1.2,1-2.2,2.2-2.2s2.2,1,2.2,2.2-1,2.2-2.2,2.2h0c-1.2,0-2.2-1-2.2-2.2h0Z"/>
    <path id="Path_585" class="st0" d="M949.7,389.1c0-1.2,1-2.2,2.2-2.2s2.2,1,2.2,2.2-1,2.2-2.2,2.2h0c-1.2,0-2.2-1-2.2-2.2h0Z"/>
    <path id="Path_586" class="st0" d="M967.3,389.1c0-1.2,1-2.2,2.2-2.2s2.2,1,2.2,2.2c0,1.2-1,2.2-2.2,2.2-1.2,0-2.2-1-2.2-2.2h0Z"/>
    <path id="Path_587" class="st0" d="M984.9,389.1c0-1.2,1-2.2,2.2-2.2s2.2,1,2.2,2.2-1,2.2-2.2,2.2h0c-1.2,0-2.2-1-2.2-2.2h0Z"/>
    <path id="Path_588" class="st0" d="M1002.5,389.1c0-1.2,1-2.2,2.2-2.2s2.2,1,2.2,2.2-1,2.2-2.2,2.2h0c-1.2,0-2.2-1-2.2-2.2h0Z"/>
    <path id="Path_589" class="st0" d="M316.6,406.7c0-1.2,1-2.2,2.2-2.2,1.2,0,2.2,1,2.2,2.2,0,1.2-1,2.2-2.2,2.2h0c-1.2,0-2.2-1-2.2-2.2h0Z"/>
    <path id="Path_590" class="st0" d="M334.2,406.7c0-1.2,1-2.2,2.2-2.2s2.2,1,2.2,2.2-1,2.2-2.2,2.2h0c-1.2,0-2.2-1-2.2-2.2h0Z"/>
    <path id="Path_591" class="st0" d="M351.7,406.7c0-1.2,1-2.2,2.2-2.2,1.2,0,2.2,1,2.2,2.2,0,1.2-1,2.2-2.2,2.2h0c-1.2,0-2.2-1-2.2-2.2h0Z"/>
    <path id="Path_592" class="st0" d="M369.3,406.7c0-1.2,1-2.2,2.2-2.2,1.2,0,2.2,1,2.2,2.2,0,1.2-1,2.2-2.2,2.2h0c-1.2,0-2.2-1-2.2-2.2Z"/>
    <path id="Path_593" class="st0" d="M386.9,406.7c0-1.2,1-2.2,2.2-2.2,1.2,0,2.2,1,2.2,2.2,0,1.2-1,2.2-2.2,2.2h0c-1.2,0-2.2-1-2.2-2.2h0Z"/>
    <path id="Path_594" class="st0" d="M580.4,406.7c0-1.2,1-2.2,2.2-2.2,1.2,0,2.2,1,2.2,2.2s-1,2.2-2.2,2.2h0c-1.2,0-2.2-1-2.2-2.2h0Z"/>
    <path id="Path_595" class="st0" d="M598,406.7c0-1.2,1-2.2,2.2-2.2s2.2,1,2.2,2.2c0,1.2-1,2.2-2.2,2.2-1.2,0-2.2-1-2.2-2.2h0Z"/>
    <path id="Path_596" class="st0" d="M615.5,406.7c0-1.2,1-2.2,2.2-2.2,1.2,0,2.2,1,2.2,2.2s-1,2.2-2.2,2.2h0c-1.2,0-2.2-1-2.2-2.2h0Z"/>
    <path id="Path_597" class="st0" d="M633.1,406.7c0-1.2,1-2.2,2.2-2.2,1.2,0,2.2,1,2.2,2.2s-1,2.2-2.2,2.2h0c-1.2,0-2.2-1-2.2-2.2h0Z"/>
    <path id="Path_598" class="st0" d="M685.9,406.7c0-1.2,1-2.2,2.2-2.2,1.2,0,2.2,1,2.2,2.2s-1,2.2-2.2,2.2h0c-1.2,0-2.2-1-2.2-2.2h0Z"/>
    <path id="Path_599" class="st0" d="M896.9,406.7c0-1.2,1-2.2,2.2-2.2s2.2,1,2.2,2.2-1,2.2-2.2,2.2c-1.2,0-2.2-1-2.2-2.2h0Z"/>
    <path id="Path_600" class="st0" d="M914.5,406.7c0-1.2,1-2.2,2.2-2.2,1.2,0,2.2,1,2.2,2.2,0,1.2-1,2.2-2.2,2.2h0c-1.2,0-2.2-1-2.2-2.2h0Z"/>
    <path id="Path_601" class="st0" d="M932.1,406.7c0-1.2,1-2.2,2.2-2.2,1.2,0,2.2,1,2.2,2.2,0,1.2-1,2.2-2.2,2.2h0c-1.2,0-2.2-1-2.2-2.2h0Z"/>
    <path id="Path_602" class="st0" d="M949.7,406.7c0-1.2,1-2.2,2.2-2.2,1.2,0,2.2,1,2.2,2.2,0,1.2-1,2.2-2.2,2.2h0c-1.2,0-2.2-1-2.2-2.2h0Z"/>
    <path id="Path_603" class="st0" d="M967.3,406.7c0-1.2,1-2.2,2.2-2.2s2.2,1,2.2,2.2-1,2.2-2.2,2.2c-1.2,0-2.2-1-2.2-2.2h0Z"/>
    <path id="Path_604" class="st0" d="M984.9,406.7c0-1.2,1-2.2,2.2-2.2,1.2,0,2.2,1,2.2,2.2,0,1.2-1,2.2-2.2,2.2h0c-1.2,0-2.2-1-2.2-2.2h0Z"/>
    <path id="Path_605" class="st0" d="M1002.5,406.7c0-1.2,1-2.2,2.2-2.2,1.2,0,2.2,1,2.2,2.2,0,1.2-1,2.2-2.2,2.2h0c-1.2,0-2.2-1-2.2-2.2h0Z"/>
    <path id="Path_606" class="st0" d="M1020,406.7c0-1.2,1-2.2,2.2-2.2,1.2,0,2.2,1,2.2,2.2,0,1.2-1,2.2-2.2,2.2h0c-1.2,0-2.2-1-2.2-2.2h0Z"/>
    <path id="Path_607" class="st0" d="M316.6,424.3c0-1.2,1-2.2,2.2-2.2,1.2,0,2.2,1,2.2,2.2,0,1.2-1,2.2-2.2,2.2h0c-1.2,0-2.2-1-2.2-2.2h0Z"/>
    <path id="Path_608" class="st0" d="M334.2,424.3c0-1.2,1-2.2,2.2-2.2s2.2,1,2.2,2.2-1,2.2-2.2,2.2-2.2-1-2.2-2.2h0Z"/>
    <path id="Path_609" class="st0" d="M351.7,424.3c0-1.2,1-2.2,2.2-2.2,1.2,0,2.2,1,2.2,2.2,0,1.2-1,2.2-2.2,2.2h0c-1.2,0-2.2-1-2.2-2.2Z"/>
    <path id="Path_610" class="st0" d="M369.3,424.3c0-1.2,1-2.2,2.2-2.2,1.2,0,2.2,1,2.2,2.2,0,1.2-1,2.2-2.2,2.2h0c-1.2,0-2.2-1-2.2-2.2Z"/>
    <path id="Path_611" class="st0" d="M598,424.3c0-1.2,1-2.2,2.2-2.2s2.2,1,2.2,2.2c0,1.2-1,2.2-2.2,2.2s-2.2-1-2.2-2.2h0Z"/>
    <path id="Path_612" class="st0" d="M615.5,424.3c0-1.2,1-2.2,2.2-2.2,1.2,0,2.2,1,2.2,2.2,0,1.2-1,2.2-2.2,2.2h0c-1.2,0-2.2-1-2.2-2.2Z"/>
    <path id="Path_613" class="st0" d="M633.1,424.3c0-1.2,1-2.2,2.2-2.2,1.2,0,2.2,1,2.2,2.2,0,1.2-1,2.2-2.2,2.2h0c-1.2,0-2.2-1-2.2-2.2Z"/>
    <path id="Path_614" class="st0" d="M896.9,424.3c0-1.2,1-2.2,2.2-2.2s2.2,1,2.2,2.2-1,2.2-2.2,2.2-2.2-1-2.2-2.2h0Z"/>
    <path id="Path_615" class="st0" d="M914.5,424.3c0-1.2,1-2.2,2.2-2.2,1.2,0,2.2,1,2.2,2.2,0,1.2-1,2.2-2.2,2.2h0c-1.2,0-2.2-1-2.2-2.2Z"/>
    <path id="Path_616" class="st0" d="M932.1,424.3c0-1.2,1-2.2,2.2-2.2,1.2,0,2.2,1,2.2,2.2,0,1.2-1,2.2-2.2,2.2h0c-1.2,0-2.2-1-2.2-2.2Z"/>
    <path id="Path_617" class="st0" d="M949.7,424.3c0-1.2,1-2.2,2.2-2.2,1.2,0,2.2,1,2.2,2.2,0,1.2-1,2.2-2.2,2.2h0c-1.2,0-2.2-1-2.2-2.2h0Z"/>
    <path id="Path_618" class="st0" d="M967.3,424.3c0-1.2,1-2.2,2.2-2.2s2.2,1,2.2,2.2-1,2.2-2.2,2.2-2.2-1-2.2-2.2h0Z"/>
    <path id="Path_619" class="st0" d="M984.9,424.3c0-1.2,1-2.2,2.2-2.2,1.2,0,2.2,1,2.2,2.2,0,1.2-1,2.2-2.2,2.2h0c-1.2,0-2.2-1-2.2-2.2Z"/>
    <path id="Path_620" class="st0" d="M1002.5,424.3c0-1.2,1-2.2,2.2-2.2,1.2,0,2.2,1,2.2,2.2,0,1.2-1,2.2-2.2,2.2h0c-1.2,0-2.2-1-2.2-2.2Z"/>
    <path id="Path_621" class="st0" d="M1020,424.3c0-1.2,1-2.2,2.2-2.2,1.2,0,2.2,1,2.2,2.2,0,1.2-1,2.2-2.2,2.2h0c-1.2,0-2.2-1-2.2-2.2h0Z"/>
    <path id="Path_622" class="st0" d="M299,441.9c0-1.2,1-2.2,2.2-2.2s2.2,1,2.2,2.2-1,2.2-2.2,2.2h0c-1.2,0-2.2-1-2.2-2.2Z"/>
    <path id="Path_623" class="st0" d="M316.6,441.9c0-1.2,1-2.2,2.2-2.2s2.2,1,2.2,2.2-1,2.2-2.2,2.2h0c-1.2,0-2.2-1-2.2-2.2h0Z"/>
    <path id="Path_624" class="st0" d="M334.2,441.9c0-1.2,1-2.2,2.2-2.2s2.2,1,2.2,2.2c0,1.2-1,2.2-2.2,2.2s-2.2-1-2.2-2.2h0Z"/>
    <path id="Path_625" class="st0" d="M351.7,441.9c0-1.2,1-2.2,2.2-2.2s2.2,1,2.2,2.2-1,2.2-2.2,2.2h0c-1.2,0-2.2-1-2.2-2.2Z"/>
    <path id="Path_626" class="st0" d="M598,441.9c0-1.2,1-2.2,2.2-2.2,1.2,0,2.2,1,2.2,2.2,0,1.2-1,2.2-2.2,2.2s-2.2-1-2.2-2.2h0Z"/>
    <path id="Path_627" class="st0" d="M615.5,441.9c0-1.2,1-2.2,2.2-2.2s2.2,1,2.2,2.2-1,2.2-2.2,2.2h0c-1.2,0-2.2-1-2.2-2.2Z"/>
    <path id="Path_628" class="st0" d="M914.5,441.9c0-1.2,1-2.2,2.2-2.2s2.2,1,2.2,2.2-1,2.2-2.2,2.2h0c-1.2,0-2.2-1-2.2-2.2Z"/>
    <path id="Path_629" class="st0" d="M932.1,441.9c0-1.2,1-2.2,2.2-2.2s2.2,1,2.2,2.2-1,2.2-2.2,2.2h0c-1.2,0-2.2-1-2.2-2.2Z"/>
    <path id="Path_630" class="st0" d="M967.3,441.9c0-1.2,1-2.2,2.2-2.2s2.2,1,2.2,2.2c0,1.2-1,2.2-2.2,2.2s-2.2-1-2.2-2.2h0Z"/>
    <path id="Path_631" class="st0" d="M984.9,441.9c0-1.2,1-2.2,2.2-2.2s2.2,1,2.2,2.2-1,2.2-2.2,2.2h0c-1.2,0-2.2-1-2.2-2.2Z"/>
    <path id="Path_632" class="st0" d="M1002.5,441.9c0-1.2,1-2.2,2.2-2.2s2.2,1,2.2,2.2-1,2.2-2.2,2.2h0c-1.2,0-2.2-1-2.2-2.2Z"/>
    <path id="Path_633" class="st0" d="M1020,441.9c0-1.2,1-2.2,2.2-2.2s2.2,1,2.2,2.2-1,2.2-2.2,2.2h0c-1.2,0-2.2-1-2.2-2.2h0Z"/>
    <path id="Path_634" class="st0" d="M1090.4,441.9c0-1.2,1-2.2,2.2-2.2s2.2,1,2.2,2.2-1,2.2-2.2,2.2h0c-1.2,0-2.2-1-2.2-2.2h0Z"/>
    <path id="Path_635" class="st0" d="M299,459.5c0-1.2,1-2.2,2.2-2.2s2.2,1,2.2,2.2-1,2.2-2.2,2.2h0c-1.2,0-2.2-1-2.2-2.2h0Z"/>
    <path id="Path_636" class="st0" d="M316.6,459.5c0-1.2,1-2.2,2.2-2.2s2.2,1,2.2,2.2-1,2.2-2.2,2.2h0c-1.2,0-2.2-1-2.2-2.2h0Z"/>
    <path id="Path_637" class="st0" d="M334.2,459.5c0-1.2,1-2.2,2.2-2.2s2.2,1,2.2,2.2c0,1.2-1,2.2-2.2,2.2-1.2,0-2.2-1-2.2-2.2h0Z"/>
    <path id="Path_638" class="st0" d="M984.9,459.5c0-1.2,1-2.2,2.2-2.2s2.2,1,2.2,2.2-1,2.2-2.2,2.2h0c-1.2,0-2.2-1-2.2-2.2h0Z"/>
    <path id="Path_639" class="st0" d="M1002.5,459.5c0-1.2,1-2.2,2.2-2.2s2.2,1,2.2,2.2-1,2.2-2.2,2.2h0c-1.2,0-2.2-1-2.2-2.2h0Z"/>
    <path id="Path_640" class="st0" d="M1090.4,459.5c0-1.2,1-2.2,2.2-2.2s2.2,1,2.2,2.2-1,2.2-2.2,2.2h0c-1.2,0-2.2-1-2.2-2.2h0Z"/>
    <path id="Path_641" class="st0" d="M299,477c0-1.2,1-2.2,2.2-2.2s2.2,1,2.2,2.2c0,1.2-1,2.2-2.2,2.2h0c-1.2,0-2.2-1-2.2-2.2h0Z"/>
    <path id="Path_642" class="st0" d="M316.6,477c0-1.2,1-2.2,2.2-2.2s2.2,1,2.2,2.2c0,1.2-1,2.2-2.2,2.2h0c-1.2,0-2.2-1-2.2-2.2h0Z"/>
    <path id="Path_643" class="st0" d="M1002.5,477c0-1.2,1-2.2,2.2-2.2s2.2,1,2.2,2.2c0,1.2-1,2.2-2.2,2.2h0c-1.2,0-2.2-1-2.2-2.2h0Z"/>
    <path id="Path_644" class="st0" d="M1072.8,477c0-1.2,1-2.2,2.2-2.2s2.2,1,2.2,2.2c0,1.2-1,2.2-2.2,2.2h0c-1.2,0-2.2-1-2.2-2.2h0Z"/>
    <path id="Path_645" class="st0" d="M1090.4,477c0-1.2,1-2.2,2.2-2.2s2.2,1,2.2,2.2c0,1.2-1,2.2-2.2,2.2h0c-1.2,0-2.2-1-2.2-2.2h0Z"/>
    <path id="Path_646" class="st0" d="M299,494.6c0-1.2,1-2.2,2.2-2.2s2.2,1,2.2,2.2c0,1.2-1,2.2-2.2,2.2h0c-1.2,0-2.2-1-2.2-2.2Z"/>
    <path id="Path_647" class="st0" d="M316.6,494.6c0-1.2,1-2.2,2.2-2.2s2.2,1,2.2,2.2c0,1.2-1,2.2-2.2,2.2h0c-1.2,0-2.2-1-2.2-2.2h0Z"/>
    <path id="Path_648" class="st0" d="M299,512.2c0-1.2,1-2.2,2.2-2.2s2.2,1,2.2,2.2-1,2.2-2.2,2.2h0c-1.2,0-2.2-1-2.2-2.2Z"/>
    <path id="Path_649" class="st0" d="M316.6,512.2c0-1.2,1-2.2,2.2-2.2s2.2,1,2.2,2.2-1,2.2-2.2,2.2h0c-1.2,0-2.2-1-2.2-2.2h0Z"/>
    <path id="Path_650" class="st0" d="M334.2,512.2c0-1.2,1-2.2,2.2-2.2s2.2,1,2.2,2.2c0,1.2-1,2.2-2.2,2.2s-2.2-1-2.2-2.2h0Z"/>
  </g>
</svg>